<svg width="64" height="64" viewBox="0 0 64 64" fill="none" xmlns="http://www.w3.org/2000/svg">
<rect opacity="0.14" width="64" height="64" rx="16" fill="#51AA74"/>
<path d="M15.5 26.4602C15.6777 25.8914 15.7806 25.2852 16.045 24.7597C16.9463 22.9741 18.4343 22.0091 20.4324 21.9173C21.6423 21.8611 22.8565 21.9071 24.075 21.8841C22.9492 21.663 22.0292 21.1188 21.3643 20.1836C20.6994 19.2483 20.4877 18.2169 20.6679 17.0877C20.9851 15.1074 22.8098 13.6101 24.8436 13.6756C26.8605 13.7411 28.5695 15.394 28.7497 17.4729C28.9122 19.3435 27.7422 21.3986 25.2815 21.9096C27.0807 21.6766 28.6231 22.0992 29.7029 23.6952L29.7879 23.6101V23.2632C29.7879 21.1325 29.7811 19.0008 29.7879 16.8692C29.793 15.5674 30.3432 14.559 31.5361 13.9978C31.9781 13.7964 32.4576 13.6903 32.9433 13.6866C37.6821 13.6645 42.4207 13.6609 47.1589 13.6756C49.0091 13.6756 50.3211 15.0029 50.3253 16.859C50.3333 20.1915 50.3333 23.5243 50.3253 26.8573C50.3253 28.7492 49.0074 30.062 47.113 30.0645C43.4178 30.0696 39.7216 30.0645 36.0264 30.0739C35.7592 30.0786 35.496 30.1401 35.2543 30.2541C34.16 30.772 33.0836 31.328 31.9893 31.8459C31.3779 32.1347 30.6811 32.1865 30.0337 31.9912C29.9516 31.9748 29.8687 31.9628 29.7854 31.9555V32.3611C29.7854 36.6578 29.7854 40.9542 29.7854 45.2503C29.7854 46.5802 29.2336 47.5911 28.0253 48.1914C27.7277 48.3394 27.3859 48.3997 27.0645 48.5001H26.3843C25.8189 48.3725 25.2738 48.2016 24.813 47.825C24.7738 47.8038 24.73 47.7928 24.6855 47.7928C24.6409 47.7928 24.5971 47.8038 24.5579 47.825C24.0971 48.2016 23.5521 48.3725 22.9866 48.5001H22.3064C21.8201 48.3011 21.2861 48.1753 20.8609 47.8887C19.9469 47.274 19.5855 46.3421 19.5855 45.2529C19.5855 42.32 19.5855 39.3872 19.5855 36.4543V36.0368C19.4733 36.0547 19.3951 36.064 19.3194 36.081C18.0644 36.3577 17.0203 36.0074 16.187 35.0301C15.7984 34.5769 15.6369 34.0285 15.5068 33.4648L15.5 26.4602ZM37.8442 28.0077C37.9006 28.0165 37.9573 28.0219 38.0143 28.0239C41.0753 28.0239 44.1362 28.0239 47.1972 28.0239C47.8842 28.0239 48.2847 27.592 48.2847 26.8701C48.2847 23.537 48.2847 20.204 48.2847 16.8709C48.2847 16.1193 47.8808 15.7154 47.1292 15.7154C42.4125 15.7154 37.6966 15.7154 32.9815 15.7154C32.2291 15.7154 31.826 16.1193 31.8252 16.8709C31.8252 19.5237 31.8252 22.1763 31.8252 24.8286C31.8252 24.9136 31.8422 24.9918 31.8524 25.0888C32.5045 24.7733 33.1125 24.4417 33.7493 24.1807C34.8224 23.7411 35.841 23.906 36.7584 24.6058C36.9642 24.7623 37.1045 24.7657 37.3256 24.6534C38.9504 23.8278 40.583 23.0175 42.2129 22.2029C42.3728 22.1175 42.5374 22.0415 42.7061 21.9751C42.8338 21.9271 42.9699 21.9057 43.1062 21.9124C43.2424 21.9191 43.3758 21.9536 43.4982 22.0138C43.6206 22.074 43.7293 22.1587 43.8177 22.2626C43.9061 22.3665 43.9722 22.4874 44.0121 22.6179C44.1821 23.128 43.9568 23.6093 43.3939 23.8933C41.6653 24.7563 39.9367 25.6185 38.2047 26.4943C38.0993 26.547 37.965 26.6575 37.9497 26.7561C37.8961 27.1634 37.8774 27.5809 37.8442 28.0077ZM21.6219 36.2137V45.1585C21.6219 45.2716 21.6219 45.3855 21.627 45.4986C21.6515 45.7497 21.7682 45.9828 21.9544 46.153C22.1407 46.3231 22.3834 46.4182 22.6357 46.4199C22.888 46.4216 23.1319 46.3298 23.3205 46.1621C23.509 45.9945 23.6288 45.763 23.6566 45.5122C23.6677 45.3881 23.6626 45.2631 23.6626 45.1381V35.445C23.6586 35.3203 23.6614 35.1954 23.6711 35.0709C23.7024 34.8256 23.8217 34.6 24.0068 34.4361C24.192 34.2721 24.4304 34.181 24.6776 34.1797C24.9249 34.1783 25.1643 34.2668 25.3512 34.4287C25.5382 34.5906 25.6599 34.8149 25.6939 35.0599C25.7042 35.184 25.7074 35.3086 25.7032 35.4331V45.1602C25.7032 45.9782 26.0757 46.4526 26.7193 46.4552C27.363 46.4577 27.7439 45.9807 27.7439 45.1687V30.204C27.7439 30.09 27.7439 29.977 27.7439 29.8639C27.7736 29.4438 27.9692 29.1258 28.3612 28.9617C28.538 28.8805 28.735 28.854 28.927 28.8857C29.119 28.9174 29.2971 29.0057 29.4385 29.1394C29.6349 29.3095 29.81 29.5051 29.9996 29.6845C30.4384 30.1002 30.8227 30.1691 31.3601 29.903C32.6718 29.2562 33.9789 28.6018 35.2815 27.9397C35.4329 27.8632 35.5678 27.7578 35.6786 27.6294C35.8206 27.4487 35.8968 27.225 35.8947 26.9952C35.8927 26.7654 35.8125 26.5432 35.6673 26.365C35.5221 26.1869 35.3206 26.0635 35.096 26.0151C34.8713 25.9668 34.6369 25.9963 34.4313 26.0989C33.5742 26.5096 32.7307 26.9432 31.8762 27.3666C31.2079 27.6991 30.8482 27.6421 30.3227 27.1184C29.3994 26.1978 28.4777 25.2761 27.5577 24.3533C27.3026 24.0982 27.0271 23.9417 26.6598 23.9426C24.6532 23.9468 22.6465 23.9281 20.6399 23.9494C18.9104 23.9681 17.6019 25.201 17.5577 26.9253C17.5049 28.9983 17.5389 31.0738 17.5474 33.1485C17.5474 33.5847 17.7838 33.9018 18.1877 34.0676C18.8679 34.3473 19.5745 33.8457 19.5787 33.0651C19.5872 31.4666 19.5787 29.8681 19.5787 28.2696C19.5787 27.8394 19.5677 27.4074 19.5838 26.9772C19.6061 26.7244 19.7218 26.489 19.9083 26.3169C20.0948 26.1449 20.3388 26.0484 20.5925 26.0465C20.8463 26.0446 21.0917 26.1373 21.2807 26.3066C21.4698 26.4758 21.589 26.7095 21.6151 26.9619C21.6228 27.0741 21.6151 27.1881 21.6151 27.302L21.6219 36.2137ZM26.721 17.8215C26.721 16.7 25.7857 15.7256 24.6982 15.7137C23.6107 15.7018 22.6406 16.6898 22.6448 17.8241C22.6497 18.3634 22.8662 18.8792 23.2478 19.2604C23.6293 19.6416 24.1453 19.8577 24.6846 19.8622C25.2238 19.8568 25.7393 19.64 26.1202 19.2583C26.501 18.8766 26.7168 18.3607 26.721 17.8215V17.8215Z" fill="#252B42"/>
</svg>
