<svg width="42" height="42" viewBox="0 0 42 42" fill="none" xmlns="http://www.w3.org/2000/svg">
<g opacity="0.8">
<path d="M37.7029 19.2835C37.7612 20.9362 37.7612 22.7911 37.2761 24.6101C36.2641 28.4083 33.9017 31.0974 30.4495 32.8735C28.2135 34.0255 25.8074 34.6117 23.3118 34.8548C22.4894 34.9355 21.665 34.9685 20.8386 34.9967C20.5719 35.0129 20.305 34.9689 20.0576 34.8679C19.8102 34.767 19.5887 34.6116 19.4095 34.4134C18.5394 33.4986 17.8823 32.4389 17.3126 31.3229C16.1343 29.014 15.3682 26.5875 15.3741 23.9733C15.3799 20.7972 16.6544 18.1403 18.8272 15.8848C20.4896 14.1563 22.4777 12.8857 24.6019 11.8163C27.6409 10.2867 30.6848 8.76562 33.7335 7.25293C34.7377 6.75129 35.5495 6.99628 36.0891 7.984C36.6549 9.02131 36.8901 10.1636 37.0885 11.3108C37.5308 13.8783 37.6513 16.474 37.7029 19.2835ZM19.3531 28.2897C19.4037 28.2411 19.4163 28.2353 19.4183 28.2275C20.2388 24.3777 22.189 21.2272 25.2688 18.7761C26.5072 17.7968 27.8864 17.0102 29.3597 16.4429C29.9556 16.2095 30.5107 16.2931 30.99 16.7131C31.4479 17.1136 31.6044 17.6357 31.4761 18.2287C31.3254 18.9093 30.8092 19.2165 30.2123 19.4644C25.4292 21.4418 22.1277 26.3512 22.0869 31.5037C22.0869 31.7681 22.1549 31.8216 22.4126 31.8041C24.2373 31.6748 26.0193 31.3404 27.7294 30.6774C31.9534 29.0402 34.6094 25.7339 34.6211 20.8934C34.6269 18.5952 34.5977 16.3038 34.3158 14.0202C34.1797 12.9168 34.0242 11.8163 33.7879 10.708C33.6577 10.7702 33.5488 10.8198 33.4418 10.8733C31.2428 11.9728 29.0476 13.0772 26.8457 14.1689C25.1813 14.9943 23.5471 15.8683 22.117 17.0728C19.7342 19.0774 18.277 21.5186 18.4967 24.753C18.5703 25.9733 18.8603 27.1709 19.3531 28.2897Z" fill="#252B42"/>
<path d="M7.43148 10.6993C7.06431 12.5852 6.81495 14.492 6.68486 16.4089C6.57209 18.0227 6.60708 19.6375 6.61 21.2532C6.6137 23.2879 7.2432 25.2722 8.41311 26.9368C9.58302 28.6015 11.2367 29.866 13.1498 30.5588C13.6913 30.7533 14.1346 31.0391 14.3242 31.6049C14.5274 32.2125 14.4 32.7715 13.945 33.2138C13.49 33.6562 12.9233 33.7796 12.2991 33.5628C10.6506 33.0063 9.13447 32.1157 7.84563 30.9467C4.97967 28.3219 3.52433 25.0544 3.50197 21.1715C3.48642 18.5593 3.55933 15.9481 3.84904 13.3485C4.03083 11.7211 4.25443 10.0976 4.86301 8.55958C4.94668 8.34527 5.04645 8.13761 5.16147 7.93836C5.70199 7.008 6.51278 6.77176 7.48009 7.25201C9.7446 8.38167 12.0085 9.51328 14.2717 10.6468C15.0727 11.0474 15.8796 11.4382 16.672 11.8572C16.9725 12.0106 17.2138 12.2592 17.3584 12.5641C17.5029 12.869 17.5425 13.2131 17.4711 13.5429C17.4023 13.8596 17.2375 14.1474 16.9991 14.3669C16.7608 14.5865 16.4605 14.7272 16.1392 14.7698C15.762 14.8262 15.4247 14.7056 15.0922 14.5384C12.6475 13.3109 10.2009 12.085 7.7523 10.8607L7.43148 10.6993Z" fill="#252B42"/>
</g>
</svg>
