<svg width="16" height="16" viewBox="0 0 16 16" fill="none" xmlns="http://www.w3.org/2000/svg">
<path d="M10.5797 13.2396C8.43572 13.2396 6.58218 12.0267 5.65967 10.25H10.0501C10.3747 10.25 10.6736 10.0707 10.8103 9.78024C11.0922 9.21649 10.6822 8.54169 10.0501 8.54169H5.09592C5.05321 8.25982 5.02759 7.97794 5.02759 7.68752C5.02759 7.39711 5.05321 7.11523 5.09592 6.83335H10.0501C10.3747 6.83335 10.6736 6.65398 10.8103 6.36356C11.1007 5.79127 10.6907 5.12502 10.0501 5.12502H5.65967C6.58218 3.34834 8.44426 2.13542 10.5797 2.13542C11.6474 2.13542 12.6468 2.44292 13.5009 2.96397C13.928 3.22876 14.4832 3.18605 14.842 2.8273C15.3374 2.33188 15.2264 1.52042 14.6285 1.15313C13.4497 0.427085 12.0574 0 10.5797 0C7.23134 0 4.3955 2.14397 3.33633 5.12502H0.859241C0.534657 5.12502 0.235698 5.30439 0.090489 5.59481C-0.191387 6.1671 0.218614 6.83335 0.859241 6.83335H2.94341C2.90925 7.11523 2.89216 7.39711 2.89216 7.68752C2.89216 7.97794 2.90925 8.25982 2.94341 8.54169H0.859241C0.534657 8.54169 0.235698 8.72107 0.0990307 9.01149C-0.191387 9.58378 0.218614 10.25 0.859241 10.25H3.33633C4.3955 13.2311 7.23134 15.375 10.5797 15.375C12.0659 15.375 13.4497 14.9565 14.6285 14.2219C15.2178 13.8546 15.3289 13.0346 14.8335 12.5392C14.4747 12.1805 13.9195 12.1377 13.4924 12.4111C12.6468 12.9407 11.6559 13.2396 10.5797 13.2396Z" fill="white"/>
</svg>
