<svg width="64" height="64" viewBox="0 0 64 64" fill="none" xmlns="http://www.w3.org/2000/svg">
<rect opacity="0.14" width="64" height="64" rx="16" fill="#2E8B57"/>
<path d="M48.2403 51.4371C47.529 51.1644 47.0251 50.6259 46.5045 50.1023C44.3263 47.9163 42.1445 45.7332 39.9592 43.553C39.8544 43.4483 39.7616 43.3327 39.6549 43.2112C35.3888 46.1751 30.7562 47.1196 25.7481 45.8402C21.8071 44.8344 18.6683 42.6006 16.3486 39.2573C11.709 32.5737 12.7227 23.2947 18.8057 17.7472C24.8649 12.2145 34.2595 12.0268 40.546 17.3421C43.7191 20.0408 45.7561 23.8381 46.2494 27.9743C46.7427 32.1104 45.656 36.2803 43.2066 39.6496C43.7085 40.1435 44.2173 40.6474 44.7222 41.1513C46.5216 42.9481 48.3207 44.7455 50.1195 46.5436C50.6342 47.0564 51.1608 47.5553 51.4266 48.2558V49.6587C51.2819 50.0692 51.0471 50.442 50.7393 50.7498C50.4315 51.0576 50.0587 51.2924 49.6482 51.4371H48.2403ZM45.0907 29.9457C45.1134 21.6111 38.327 14.7902 29.9826 14.7615C21.6382 14.7329 14.7975 21.5163 14.752 29.8716C14.7105 38.2466 21.4761 45.0725 29.9312 45.0963C38.3547 45.12 45.0848 38.297 45.0907 29.9457ZM42.8065 44.6102C43.0574 44.8542 43.3163 45.1042 43.5692 45.3511C45.0268 46.8074 46.4824 48.265 47.936 49.7239C48.3312 50.1191 48.7926 50.2564 49.3192 50.0786C49.539 50.0097 49.734 49.8783 49.8804 49.7004C50.0267 49.5225 50.118 49.3058 50.1432 49.0768C50.2153 48.6124 50.0167 48.2429 49.6937 47.9199C48.0424 46.2733 46.3932 44.6266 44.7459 42.98C44.6876 42.9217 44.6214 42.8713 44.5779 42.8348L42.8065 44.6102ZM41.8185 43.554L43.5475 41.835L42.438 40.7235L40.7238 42.4465L41.8185 43.554Z" fill="#252B42"/>
<path d="M30.8277 25.3551C31.5498 24.8302 32.2982 24.7053 33.1142 25.0468C33.1698 25.0653 33.2289 25.0708 33.2869 25.0628C33.3449 25.0549 33.4003 25.0337 33.4489 25.001C34.595 24.0119 35.7331 23.0102 36.9388 21.9546L36.595 21.926C36.1617 21.8847 35.8672 21.5684 35.8832 21.1649C35.888 20.9764 35.9673 20.7973 36.1036 20.667C36.24 20.5366 36.4224 20.4655 36.611 20.4692C37.3411 20.4566 38.0712 20.4578 38.8024 20.4692C39.2608 20.4761 39.5519 20.7592 39.5611 21.2222C39.5756 21.9389 39.5756 22.6553 39.5611 23.3712C39.5661 23.5674 39.4943 23.7577 39.3609 23.9016C39.2275 24.0455 39.0431 24.1316 38.8471 24.1414C38.4425 24.1586 38.125 23.8377 38.0895 23.3735C38.0815 23.2589 38.0792 23.1534 38.07 22.9769C37.9279 23.0801 37.8248 23.1443 37.7342 23.2234C36.6683 24.1574 35.6082 25.0995 34.5342 26.0245C34.3417 26.1895 34.305 26.3293 34.3589 26.5723C34.5526 27.4628 34.297 28.2262 33.5818 28.7912C32.8666 29.3562 32.0816 29.4284 31.2804 29.0491C30.4598 28.6617 30.0094 27.982 30.0369 27.0628C30.0483 26.7064 29.928 26.5356 29.6346 26.366C28.618 25.7826 27.614 25.174 26.6146 24.5609C26.398 24.4291 26.2421 24.397 26.0026 24.5448C25.2541 25.0033 24.4817 24.9551 23.6931 24.5334C22.5356 25.4304 21.3742 26.332 20.2089 27.2382C19.7902 27.5637 19.3723 27.8892 18.9551 28.2147C18.4118 28.6365 17.9774 28.6479 17.6817 28.2502C17.4021 27.8743 17.5282 27.4479 18.0348 27.0525C19.5041 25.9064 20.97 24.7603 22.4484 23.6325C22.6937 23.4457 22.7739 23.2726 22.7212 22.9609C22.5069 21.6612 23.4364 20.5311 24.7842 20.4268C26.0094 20.3317 27.1292 21.393 27.0891 22.6652C27.0776 23.0239 27.1888 23.1947 27.4788 23.3632C28.6042 24.0142 29.716 24.6904 30.8277 25.3551ZM32.2432 27.7803C32.4308 27.7737 32.6089 27.6958 32.7411 27.5625C32.8733 27.4292 32.9498 27.2505 32.9549 27.0628C32.9487 26.8678 32.8668 26.6829 32.7268 26.5471C32.5867 26.4113 32.3993 26.3353 32.2042 26.3351C32.0168 26.3453 31.8402 26.4256 31.7092 26.56C31.5782 26.6943 31.5025 26.873 31.497 27.0606C31.4982 27.157 31.5185 27.2522 31.5568 27.3407C31.595 27.4292 31.6504 27.5093 31.7198 27.5762C31.7892 27.6431 31.8712 27.6957 31.961 27.7307C32.0509 27.7657 32.1468 27.7826 32.2432 27.7803V27.7803ZM25.6037 22.6801C25.6064 22.5836 25.59 22.4876 25.5554 22.3975C25.5208 22.3075 25.4687 22.2251 25.4021 22.1553C25.3355 22.0855 25.2557 22.0296 25.1674 21.9908C25.079 21.9521 24.9839 21.9312 24.8874 21.9294C24.6998 21.9326 24.5209 22.0087 24.3885 22.1416C24.2561 22.2744 24.1806 22.4536 24.1779 22.6411C24.1735 22.7375 24.1885 22.8338 24.2222 22.9242C24.2559 23.0146 24.3076 23.0973 24.3741 23.1672C24.4406 23.2371 24.5206 23.2929 24.6092 23.3311C24.6978 23.3693 24.7932 23.3892 24.8897 23.3895C25.0774 23.3866 25.2566 23.3111 25.3897 23.1788C25.5229 23.0465 25.5996 22.8677 25.6037 22.6801V22.6801Z" fill="#252B42"/>
<path d="M32.2442 27.7809C32.1478 27.7832 32.0519 27.7664 31.9621 27.7313C31.8722 27.6963 31.7902 27.6438 31.7208 27.5768C31.6514 27.5099 31.596 27.4298 31.5578 27.3413C31.5195 27.2528 31.4992 27.1576 31.498 27.0612C31.5035 26.8736 31.5792 26.695 31.7102 26.5606C31.8412 26.4262 32.0178 26.346 32.2052 26.3357C32.4003 26.3359 32.5877 26.4119 32.7278 26.5477C32.8679 26.6835 32.9497 26.8685 32.9559 27.0635C32.9508 27.2512 32.8743 27.4298 32.7421 27.5631C32.6099 27.6964 32.4318 27.7743 32.2442 27.7809V27.7809Z" fill="#252B42"/>
<path d="M25.6111 22.6787C25.607 22.8663 25.5303 23.0451 25.3971 23.1774C25.264 23.3097 25.0848 23.3852 24.8971 23.3881C24.8006 23.3878 24.7052 23.3679 24.6166 23.3297C24.528 23.2915 24.448 23.2357 24.3815 23.1658C24.315 23.0959 24.2633 23.0132 24.2296 22.9228C24.1959 22.8324 24.1809 22.7361 24.1853 22.6397C24.188 22.4522 24.2635 22.273 24.3959 22.1402C24.5283 22.0073 24.7073 21.9312 24.8948 21.928C24.9913 21.9298 25.0864 21.9506 25.1748 21.9894C25.2631 22.0282 25.3429 22.0841 25.4095 22.1539C25.4761 22.2237 25.5283 22.3061 25.5629 22.3961C25.5975 22.4862 25.6139 22.5822 25.6111 22.6787V22.6787Z" fill="#252B42"/>
<path fill-rule="evenodd" clip-rule="evenodd" d="M40.2921 25.2751C40.7501 25.2751 41.1214 25.6487 41.1214 26.1096V38.7124H19.0662C18.8555 38.7124 18.6631 38.6333 18.5168 38.5031C18.2756 38.3571 18.1143 38.0912 18.1143 37.7874V31.5291C18.1143 31.0682 18.4856 30.6946 18.9436 30.6946C19.4016 30.6946 19.7729 31.0682 19.7729 31.5291V37.0435H21.2692V29.1606C21.2692 28.6998 21.6405 28.3262 22.0985 28.3262C22.5565 28.3262 22.9278 28.6998 22.9278 29.1606V37.0435H24.3014L24.3014 27.4172C24.3014 26.9563 24.6727 26.5827 25.1307 26.5827C25.5888 26.5827 25.9601 26.9563 25.9601 27.4172L25.9601 37.0435H27.3337V28.7248C27.3337 28.2639 27.705 27.8903 28.163 27.8903C28.621 27.8903 28.9923 28.2639 28.9923 28.7248V37.0435H30.3661V31.5291C30.3661 31.0682 30.7374 30.6946 31.1954 30.6946C31.6534 30.6946 32.0247 31.0682 32.0247 31.5291V37.0435H33.3988V31.5291C33.3988 31.0682 33.7701 30.6946 34.2281 30.6946C34.6861 30.6946 35.0574 31.0682 35.0574 31.5291V37.0435H36.4305V29.1606C36.4305 28.6998 36.8018 28.3262 37.2599 28.3262C37.7179 28.3262 38.0892 28.6998 38.0892 29.1606V37.0435H39.4628V26.1096C39.4628 25.6487 39.8341 25.2751 40.2921 25.2751Z" fill="#252B42"/>
<path d="M45.1421 30.0853C45.1421 38.5429 38.3289 45.394 29.9307 45.394C21.5325 45.394 14.7193 38.5429 14.7193 30.0853C14.7193 21.6277 21.5325 14.7767 29.9307 14.7767C38.3289 14.7767 45.1421 21.6277 45.1421 30.0853Z" stroke="#252B42" stroke-width="0.983484"/>
</svg>
