<svg width="42" height="42" viewBox="0 0 42 42" fill="none" xmlns="http://www.w3.org/2000/svg">
<path d="M35 7H13C11.8937 7 11 7.89562 11 9V30C11 30.55 10.5525 31 10 31C9.4475 31 9 30.55 9 30V11H7C5.89562 11 5 11.8937 5 13V31C5 33.2094 6.79063 35 9 35H33C35.2094 35 37 33.2094 37 31V9C37 7.89562 36.1063 7 35 7ZM22 31H16C15.45 31 15 30.55 15 30C15 29.45 15.45 29 16 29H22C22.5523 29 23 29.4476 23 30C23 30.55 22.55 31 22 31ZM22 25H16C15.45 25 15 24.55 15 24C15 23.45 15.45 23 16 23H22C22.55 23 23 23.45 23 24C23 24.55 22.55 25 22 25ZM32 31H26C25.4477 31 25 30.5523 25 30C25 29.4476 25.4477 29 26 29H32C32.5523 29 33 29.4476 33 30C33 30.55 32.55 31 32 31ZM32 25H26C25.45 25 25 24.55 25 24C25 23.45 25.45 23 26 23H32C32.55 23 33 23.45 33 24C33 24.55 32.55 25 32 25ZM33 18C33 18.55 32.55 19 32 19H16C15.45 19 15 18.55 15 18V12C15 11.45 15.45 11 16 11H32C32.55 11 33 11.45 33 12V18Z" fill="#252B42"/>
</svg>
