<svg width="26" height="26" viewBox="0 0 26 26" fill="none" xmlns="http://www.w3.org/2000/svg">
<path opacity="0.32" d="M11.7 6.5H14.3V9.1H11.7V6.5ZM13 19.5C13.715 19.5 14.3 18.915 14.3 18.2V13C14.3 12.285 13.715 11.7 13 11.7C12.285 11.7 11.7 12.285 11.7 13V18.2C11.7 18.915 12.285 19.5 13 19.5ZM13 0C5.824 0 0 5.824 0 13C0 20.176 5.824 26 13 26C20.176 26 26 20.176 26 13C26 5.824 20.176 0 13 0ZM13 23.4C7.267 23.4 2.6 18.733 2.6 13C2.6 7.267 7.267 2.6 13 2.6C18.733 2.6 23.4 7.267 23.4 13C23.4 18.733 18.733 23.4 13 23.4Z" fill="#252B42"/>
</svg>
