<svg width="165" height="63" viewBox="0 0 165 63" fill="none" xmlns="http://www.w3.org/2000/svg">
<path d="M69.3039 10.8822V15.2494C67.1731 13.4667 64.9684 12.5753 62.6898 12.5753C60.1792 12.5753 58.0641 13.4772 56.3447 15.2811C54.6147 17.0744 53.7496 19.2685 53.7496 21.8635C53.7496 24.4269 54.6147 26.5894 56.3447 28.3511C58.0747 30.1127 60.195 30.9936 62.7056 30.9936C64.0031 30.9936 65.1055 30.7826 66.0127 30.3606C66.519 30.1497 67.0412 29.8649 67.5792 29.5062C68.1277 29.1475 68.7026 28.715 69.3039 28.2087V32.655C67.1942 33.847 64.9789 34.4431 62.6582 34.4431C59.1665 34.4431 56.1864 33.2247 53.718 30.7879C51.2601 28.33 50.0312 25.3658 50.0312 21.8952C50.0312 18.7833 51.0597 16.0089 53.1167 13.5721C55.6484 10.5868 58.9239 9.09416 62.943 9.09416C65.1371 9.09416 67.2575 9.69017 69.3039 10.8822ZM90.6938 13.0342H80.8992V18.9046H90.409V22.3699H80.8992V30.5347H90.6938V34H77.2124V9.56886H90.6938V13.0342ZM107.052 23.5883L114.615 34H110.106L103.128 23.9997H102.463V34H98.7764V9.56886H103.096C106.324 9.56886 108.655 10.1754 110.09 11.3885C111.672 12.7388 112.464 14.5215 112.464 16.7368C112.464 18.4668 111.968 19.9542 110.976 21.199C109.985 22.4437 108.676 23.2402 107.052 23.5883ZM102.463 20.7876H103.634C107.126 20.7876 108.872 19.4531 108.872 16.7843C108.872 14.2842 107.173 13.0342 103.777 13.0342H102.463V20.7876ZM135.895 28.0663H125.435L122.714 34H118.742L130.831 8.034L142.493 34H138.458L135.895 28.0663ZM134.391 24.601L130.768 16.2938L126.97 24.601H134.391ZM162.617 13.2082L159.626 14.9804C159.067 14.0099 158.535 13.377 158.028 13.0816C157.501 12.7441 156.82 12.5753 155.987 12.5753C154.964 12.5753 154.115 12.8654 153.439 13.4456C152.764 14.0152 152.427 14.7325 152.427 15.5975C152.427 16.7895 153.313 17.7495 155.085 18.4774L157.522 19.4742C159.505 20.2759 160.956 21.257 161.873 22.4174C162.791 23.5672 163.25 24.9807 163.25 26.658C163.25 28.9049 162.501 30.7615 161.003 32.2278C159.494 33.7046 157.622 34.4431 155.386 34.4431C153.265 34.4431 151.514 33.8154 150.132 32.5601C148.772 31.3048 147.922 29.5378 147.585 27.2593L151.319 26.4365C151.488 27.8711 151.783 28.8627 152.205 29.4112C152.965 30.4661 154.072 30.9936 155.528 30.9936C156.678 30.9936 157.633 30.6085 158.392 29.8385C159.152 29.0684 159.531 28.0926 159.531 26.9112C159.531 26.4365 159.463 26.004 159.326 25.6137C159.199 25.2128 158.993 24.8489 158.709 24.5219C158.434 24.1843 158.076 23.8731 157.633 23.5883C157.19 23.2929 156.662 23.0134 156.05 22.7497L153.693 21.7686C150.349 20.3551 148.677 18.2875 148.677 15.5659C148.677 13.7304 149.378 12.1955 150.781 10.9613C152.184 9.71654 153.93 9.09416 156.019 9.09416C158.835 9.09416 161.035 10.4655 162.617 13.2082Z" fill="white"/>
<path d="M59.8686 49.8686H53.9565L52.4181 53.2227H50.1731L57.0065 38.5453L63.5983 53.2227H61.3176L59.8686 49.8686ZM59.0189 47.9098L56.9707 43.2141L54.8241 47.9098H59.0189ZM67.1652 53.2227V38.4737L77.2364 49.01V39.4129H79.3204V54.0634L69.2492 43.554V53.2227H67.1652ZM92.6901 49.8686H86.778L85.2396 53.2227H82.9946L89.828 38.5453L96.4198 53.2227H94.1391L92.6901 49.8686ZM91.8404 47.9098L89.7922 43.2141L87.6456 47.9098H91.8404ZM102.071 39.4129V51.2639H106.131V53.2227H99.9868V39.4129H102.071ZM111.55 47.2569L107.042 39.4129H109.439L112.596 44.9314L115.762 39.4129H118.16L113.634 47.2569V53.2227H111.55V47.2569ZM126.297 41.3716V53.2227H124.213V41.3716H121.038V39.4129H129.463V41.3716H126.297ZM135.239 39.4129V53.2227H133.155V39.4129H135.239ZM150.595 40.1552V42.6238C149.39 41.6161 148.144 41.1123 146.856 41.1123C145.437 41.1123 144.241 41.6221 143.269 42.6417C142.291 43.6554 141.803 44.8956 141.803 46.3625C141.803 47.8114 142.291 49.0338 143.269 50.0296C144.247 51.0254 145.446 51.5233 146.865 51.5233C147.598 51.5233 148.221 51.404 148.734 51.1655C149.02 51.0462 149.316 50.8852 149.62 50.6825C149.93 50.4798 150.255 50.2353 150.595 49.9491V52.4624C149.402 53.1362 148.15 53.4731 146.838 53.4731C144.864 53.4731 143.18 52.7844 141.785 51.407C140.395 50.0177 139.701 48.3421 139.701 46.3804C139.701 44.6213 140.282 43.0531 141.445 41.6757C142.876 39.9883 144.727 39.1445 146.999 39.1445C148.239 39.1445 149.438 39.4814 150.595 40.1552ZM162.873 41.47L161.183 42.4718C160.867 41.9232 160.566 41.5654 160.279 41.3985C159.981 41.2077 159.597 41.1123 159.126 41.1123C158.547 41.1123 158.067 41.2762 157.686 41.6042C157.304 41.9262 157.113 42.3316 157.113 42.8206C157.113 43.4944 157.614 44.037 158.616 44.4484L159.993 45.0119C161.114 45.4651 161.934 46.0196 162.453 46.6755C162.972 47.3255 163.231 48.1245 163.231 49.0726C163.231 50.3426 162.808 51.3921 161.961 52.2209C161.108 53.0557 160.05 53.4731 158.786 53.4731C157.587 53.4731 156.597 53.1183 155.816 52.4087C155.047 51.6992 154.567 50.7004 154.376 49.4124L156.487 48.9473C156.582 49.7583 156.749 50.3188 156.988 50.6288C157.417 51.2251 158.043 51.5233 158.866 51.5233C159.516 51.5233 160.056 51.3056 160.485 50.8703C160.914 50.4351 161.129 49.8835 161.129 49.2157C161.129 48.9473 161.09 48.7029 161.013 48.4822C160.941 48.2557 160.825 48.0499 160.664 47.8651C160.509 47.6743 160.306 47.4984 160.056 47.3374C159.805 47.1704 159.507 47.0124 159.161 46.8634L157.829 46.3088C155.939 45.5098 154.993 44.3411 154.993 42.8027C154.993 41.7652 155.39 40.8976 156.183 40.1999C156.976 39.4963 157.963 39.1445 159.143 39.1445C160.736 39.1445 161.979 39.9197 162.873 41.47Z" fill="white"/>
<rect x="36.8633" y="40.5002" width="2.44401" height="5.76087" fill="white"/>
<rect x="36.8633" y="6.28418" width="2.44401" height="5.76087" fill="white"/>
<path fill-rule="evenodd" clip-rule="evenodd" d="M44.7196 12.0364L31.4521 12.0364L31.4521 33.7793C31.6971 32.0637 32.6444 30.456 34.2009 29.4206C36.1263 28.1398 38.4994 28.0571 40.4407 28.9959C40.5553 31.1483 39.562 33.3038 37.6373 34.5841C35.7299 35.8529 33.3832 35.9459 31.4521 35.035L31.4521 40.632H44.7196V12.0364Z" fill="white"/>
<rect x="21.123" y="48.3561" width="2.44401" height="5.76087" fill="white"/>
<rect x="21.123" y="14.3146" width="2.44401" height="5.76087" fill="white"/>
<path fill-rule="evenodd" clip-rule="evenodd" d="M15.71 19.9052L28.9774 19.9052V28.3774C28.6723 26.7704 27.7458 25.2828 26.2763 24.3053C24.3509 23.0244 21.9779 22.9418 20.0365 23.8805C19.9219 26.0329 20.9152 28.1884 22.8399 29.4687C24.7316 30.7272 27.0555 30.829 28.9774 29.9418V48.5008H15.71L15.71 42.9865C17.6461 43.911 20.0056 43.823 21.9218 42.5483C23.8464 41.268 24.8398 39.1125 24.7252 36.9601C22.7838 36.0214 20.4108 36.104 18.4853 37.3848C16.8648 38.4628 15.9046 40.1613 15.71 41.956L15.71 19.9052Z" fill="white"/>
<rect x="5.41211" y="56.3864" width="2.44401" height="5.76087" fill="white"/>
<rect x="5.41211" y="22.1702" width="2.44401" height="5.76087" fill="white"/>
<path fill-rule="evenodd" clip-rule="evenodd" d="M13.2675 27.7941H0V56.3897H13.2675V48.5291C11.355 49.3923 9.05429 49.2817 7.17845 48.0339C5.25381 46.7536 4.2605 44.5981 4.37509 42.4457C6.31642 41.5069 8.68949 41.5896 10.6149 42.8704C12.0134 43.8007 12.9202 45.1931 13.2675 46.7106V27.7941Z" fill="white"/>
</svg>
