<svg width="79" height="40" viewBox="0 0 79 40" fill="none" xmlns="http://www.w3.org/2000/svg">
<path d="M0.16 1.2V39H15.874V33.6H6.1V1.2H0.16ZM17.9728 10.272V29.928C17.9728 35.976 21.1588 39.432 26.9908 39.432C32.8228 39.432 36.0088 35.976 36.0088 29.928V10.272C36.0088 4.224 32.8228 0.768 26.9908 0.768C21.1588 0.768 17.9728 4.224 17.9728 10.272ZM23.9128 30.306V9.894C23.9128 7.194 25.1008 6.168 26.9908 6.168C28.8808 6.168 30.0688 7.194 30.0688 9.894V30.306C30.0688 33.006 28.8808 34.032 26.9908 34.032C25.1008 34.032 23.9128 33.006 23.9128 30.306ZM48.779 17.94V23.34H51.479V30.306C51.479 33.006 50.291 33.978 48.401 33.978C46.511 33.978 45.323 33.006 45.323 30.306V9.894C45.323 7.194 46.511 6.168 48.401 6.168C50.291 6.168 51.479 7.194 51.479 9.894V13.944H57.095V10.272C57.095 4.224 54.071 0.768 48.239 0.768C42.407 0.768 39.383 4.224 39.383 10.272V29.928C39.383 35.976 42.407 39.432 48.239 39.432C54.071 39.432 57.095 35.976 57.095 29.928V17.94H48.779ZM60.424 10.272V29.928C60.424 35.976 63.61 39.432 69.442 39.432C75.274 39.432 78.46 35.976 78.46 29.928V10.272C78.46 4.224 75.274 0.768 69.442 0.768C63.61 0.768 60.424 4.224 60.424 10.272ZM66.364 30.306V9.894C66.364 7.194 67.552 6.168 69.442 6.168C71.332 6.168 72.52 7.194 72.52 9.894V30.306C72.52 33.006 71.332 34.032 69.442 34.032C67.552 34.032 66.364 33.006 66.364 30.306Z" fill="#51AA74"/>
</svg>
