<svg width="79" height="40" viewBox="0 0 79 40" fill="none" xmlns="http://www.w3.org/2000/svg">
<path d="M6.1 1.2V33.6H15.874V39H0.16V1.2H6.1ZM17.9728 10.272C17.9728 7.248 18.7468 4.908 20.2948 3.252C21.8428 1.596 24.0748 0.768 26.9908 0.768C29.9068 0.768 32.1388 1.596 33.6868 3.252C35.2348 4.908 36.0088 7.248 36.0088 10.272V29.928C36.0088 32.952 35.2348 35.292 33.6868 36.948C32.1388 38.604 29.9068 39.432 26.9908 39.432C24.0748 39.432 21.8428 38.604 20.2948 36.948C18.7468 35.292 17.9728 32.952 17.9728 29.928V10.272ZM23.9128 30.306C23.9128 32.79 24.9388 34.032 26.9908 34.032C29.0428 34.032 30.0688 32.79 30.0688 30.306V9.894C30.0688 7.41 29.0428 6.168 26.9908 6.168C24.9388 6.168 23.9128 7.41 23.9128 9.894V30.306ZM57.095 17.94V29.928C57.095 32.988 56.339 35.346 54.827 37.002C53.315 38.622 51.119 39.432 48.239 39.432C45.359 39.432 43.163 38.622 41.651 37.002C40.139 35.346 39.383 32.988 39.383 29.928V10.272C39.383 7.212 40.139 4.872 41.651 3.252C43.163 1.596 45.359 0.768 48.239 0.768C51.119 0.768 53.315 1.596 54.827 3.252C56.339 4.872 57.095 7.212 57.095 10.272V13.944H51.479V9.894C51.479 7.41 50.453 6.168 48.401 6.168C46.349 6.168 45.323 7.41 45.323 9.894V30.306C45.323 32.754 46.349 33.978 48.401 33.978C50.453 33.978 51.479 32.754 51.479 30.306V23.34H48.779V17.94H57.095ZM60.424 10.272C60.424 7.248 61.198 4.908 62.746 3.252C64.294 1.596 66.526 0.768 69.442 0.768C72.358 0.768 74.59 1.596 76.138 3.252C77.686 4.908 78.46 7.248 78.46 10.272V29.928C78.46 32.952 77.686 35.292 76.138 36.948C74.59 38.604 72.358 39.432 69.442 39.432C66.526 39.432 64.294 38.604 62.746 36.948C61.198 35.292 60.424 32.952 60.424 29.928V10.272ZM66.364 30.306C66.364 32.79 67.39 34.032 69.442 34.032C71.494 34.032 72.52 32.79 72.52 30.306V9.894C72.52 7.41 71.494 6.168 69.442 6.168C67.39 6.168 66.364 7.41 66.364 9.894V30.306Z" fill="white"/>
</svg>
