<svg width="43" height="42" viewBox="0 0 43 42" fill="none" xmlns="http://www.w3.org/2000/svg">
<path d="M36.7289 39.5536C36.0457 39.2933 35.5617 38.7794 35.0617 38.2795C32.9697 36.1928 30.8742 34.109 28.7752 32.028C28.6746 31.928 28.5854 31.8177 28.4829 31.7017C24.3855 34.5309 19.9361 35.4324 15.1261 34.2112C11.341 33.2511 8.32628 31.1188 6.09825 27.9275C1.6422 21.5477 2.61577 12.6904 8.45818 7.39509C14.2778 2.11393 23.3009 1.93475 29.3388 7.00844C32.3864 9.58443 34.3429 13.2091 34.8167 17.1573C35.2905 21.1055 34.2467 25.0858 31.8942 28.3019C32.3763 28.7734 32.865 29.2544 33.3499 29.7354C35.0781 31.4505 36.8061 33.1662 38.5337 34.8826C39.0281 35.3721 39.5339 35.8483 39.7891 36.5169V37.8561C39.6502 38.2479 39.4246 38.6038 39.129 38.8976C38.8335 39.1914 38.4754 39.4155 38.0811 39.5536H36.7289ZM33.7038 19.0391C33.7256 11.0834 27.2076 4.5725 19.1931 4.54515C11.1787 4.5178 4.60847 10.9929 4.56482 18.9684C4.52497 26.9628 11.0231 33.4784 19.1438 33.501C27.2342 33.5237 33.6981 27.0108 33.7038 19.0391ZM31.5099 33.037C31.7509 33.27 31.9996 33.5086 32.2425 33.7443C33.6424 35.1344 35.0405 36.5257 36.4366 37.9183C36.8162 38.2956 37.2593 38.4267 37.7651 38.2569C37.9762 38.1912 38.1635 38.0657 38.3041 37.8959C38.4446 37.7261 38.5323 37.5192 38.5565 37.3006C38.6258 36.8574 38.435 36.5047 38.1247 36.1963C36.5388 34.6245 34.9548 33.0528 33.3726 31.481C33.3166 31.4253 33.2531 31.3772 33.2113 31.3424L31.5099 33.037ZM30.561 32.0289L32.2216 30.388L31.156 29.327L29.5096 30.9717L30.561 32.0289Z" fill="#252B42"/>
<path d="M20.0043 14.6573C20.6978 14.1563 21.4166 14.037 22.2003 14.363C22.2537 14.3807 22.3105 14.3859 22.3662 14.3783C22.4219 14.3707 22.4751 14.3505 22.5218 14.3193C23.6226 13.3751 24.7157 12.419 25.8737 11.4114L25.5435 11.384C25.1274 11.3446 24.8444 11.0427 24.8599 10.6576C24.8645 10.4776 24.9406 10.3067 25.0716 10.1823C25.2025 10.0579 25.3777 9.99001 25.5589 9.99353C26.2601 9.9815 26.9613 9.98259 27.6636 9.99353C28.1039 10.0001 28.3835 10.2703 28.3923 10.7123C28.4063 11.3964 28.4063 12.0802 28.3923 12.7636C28.3971 12.9508 28.3281 13.1326 28.2 13.2699C28.0718 13.4073 27.8948 13.4894 27.7065 13.4988C27.3179 13.5152 27.013 13.2089 26.9789 12.7658C26.9712 12.6564 26.969 12.5557 26.9602 12.3872C26.8237 12.4857 26.7246 12.547 26.6376 12.6225C25.6139 13.5141 24.5957 14.4134 23.5642 15.2962C23.3793 15.4538 23.3441 15.5873 23.3958 15.8192C23.5818 16.6692 23.3364 17.3979 22.6495 17.9372C21.9626 18.4766 21.2085 18.5455 20.4391 18.1834C19.6509 17.8136 19.2183 17.1648 19.2447 16.2874C19.2557 15.9472 19.1401 15.7842 18.8583 15.6223C17.8819 15.0654 16.9176 14.4845 15.9577 13.8992C15.7497 13.7734 15.6 13.7427 15.3699 13.8839C14.6511 14.3215 13.9092 14.2755 13.1518 13.8729C12.04 14.7292 10.9245 15.5898 9.80539 16.4548C9.40323 16.7655 9.00181 17.0762 8.60112 17.3869C8.07935 17.7895 7.66214 17.8005 7.37814 17.4208C7.10954 17.062 7.23063 16.655 7.71718 16.2776C9.1284 15.1836 10.5363 14.0895 11.9563 13.013C12.1919 12.8347 12.269 12.6695 12.2183 12.3719C12.0125 11.1313 12.9052 10.0526 14.1998 9.95305C15.3765 9.86225 16.452 10.8753 16.4135 12.0897C16.4025 12.4321 16.5092 12.5951 16.7877 12.7559C17.8687 13.3773 18.9365 14.0228 20.0043 14.6573ZM21.3637 16.9723C21.544 16.966 21.715 16.8916 21.842 16.7644C21.969 16.6371 22.0424 16.4666 22.0473 16.2874C22.0413 16.1013 21.9628 15.9248 21.8282 15.7951C21.6937 15.6655 21.5137 15.5929 21.3263 15.5927C21.1464 15.6025 20.9767 15.6791 20.8509 15.8074C20.7251 15.9357 20.6524 16.1062 20.6471 16.2852C20.6483 16.3773 20.6678 16.4682 20.7045 16.5527C20.7412 16.6371 20.7945 16.7136 20.8611 16.7775C20.9278 16.8414 21.0065 16.8915 21.0928 16.9249C21.1791 16.9584 21.2712 16.9745 21.3637 16.9723ZM14.9868 12.1039C14.9895 12.0118 14.9737 11.9202 14.9405 11.8342C14.9072 11.7482 14.8572 11.6696 14.7932 11.603C14.7292 11.5364 14.6526 11.483 14.5678 11.446C14.4829 11.4089 14.3915 11.389 14.2988 11.3873C14.1187 11.3904 13.9469 11.4631 13.8197 11.5899C13.6925 11.7167 13.62 11.8877 13.6174 12.0667C13.6131 12.1587 13.6276 12.2506 13.66 12.3369C13.6924 12.4232 13.742 12.5021 13.8058 12.5689C13.8697 12.6356 13.9465 12.6888 14.0316 12.7253C14.1167 12.7618 14.2084 12.7808 14.301 12.7811C14.4813 12.7783 14.6534 12.7062 14.7813 12.5799C14.9092 12.4536 14.9829 12.283 14.9868 12.1039Z" fill="#252B42"/>
<path d="M21.3651 16.9728C21.2725 16.975 21.1804 16.9589 21.0941 16.9255C21.0078 16.892 20.9291 16.8419 20.8624 16.778C20.7958 16.7141 20.7425 16.6377 20.7058 16.5532C20.6691 16.4687 20.6496 16.3778 20.6484 16.2858C20.6537 16.1067 20.7264 15.9362 20.8522 15.8079C20.978 15.6797 21.1477 15.6031 21.3276 15.5933C21.515 15.5935 21.695 15.666 21.8295 15.7957C21.9641 15.9253 22.0426 16.1018 22.0486 16.288C22.0437 16.4671 21.9703 16.6377 21.8433 16.7649C21.7163 16.8921 21.5453 16.9665 21.3651 16.9728Z" fill="#252B42"/>
<path d="M14.9942 12.1027C14.9902 12.2818 14.9165 12.4524 14.7886 12.5787C14.6608 12.705 14.4886 12.7771 14.3084 12.7799C14.2157 12.7795 14.124 12.7606 14.0389 12.7241C13.9538 12.6876 13.877 12.6344 13.8132 12.5677C13.7493 12.5009 13.6997 12.422 13.6673 12.3357C13.6349 12.2494 13.6205 12.1575 13.6248 12.0655C13.6273 11.8865 13.6998 11.7155 13.827 11.5887C13.9542 11.4619 14.126 11.3892 14.3062 11.3861C14.3988 11.3878 14.4902 11.4077 14.5751 11.4448C14.6599 11.4818 14.7366 11.5352 14.8005 11.6018C14.8645 11.6684 14.9146 11.747 14.9478 11.833C14.981 11.919 14.9968 12.0106 14.9942 12.1027Z" fill="#252B42"/>
<path fill-rule="evenodd" clip-rule="evenodd" d="M29.0948 14.5809C29.5347 14.5809 29.8913 14.9375 29.8913 15.3774V27.4074H8.70824C8.50586 27.4074 8.32111 27.3319 8.1806 27.2076C7.94893 27.0683 7.79395 26.8145 7.79395 26.5245V20.5506C7.79395 20.1107 8.15056 19.7541 8.59046 19.7541C9.03037 19.7541 9.38698 20.1107 9.38698 20.5506V25.8144H10.8241V18.2898C10.8241 17.8499 11.1807 17.4933 11.6206 17.4933C12.0605 17.4933 12.4171 17.8499 12.4171 18.2898V25.8144H13.7365L13.7365 16.6256C13.7365 16.1857 14.0931 15.8291 14.533 15.8291C14.9729 15.8291 15.3295 16.1857 15.3295 16.6256L15.3295 25.8144H16.6488V17.8738C16.6488 17.4339 17.0054 17.0772 17.4453 17.0772C17.8852 17.0772 18.2419 17.4339 18.2419 17.8738V25.8144H19.5613V20.5506C19.5613 20.1107 19.9179 19.7541 20.3578 19.7541C20.7977 19.7541 21.1543 20.1107 21.1543 20.5506V25.8144H22.4741V20.5506C22.4741 20.1107 22.8307 19.7541 23.2706 19.7541C23.7105 19.7541 24.0671 20.1107 24.0671 20.5506V25.8144H25.3859V18.2898C25.3859 17.8499 25.7425 17.4933 26.1825 17.4933C26.6224 17.4933 26.979 17.8499 26.979 18.2898V25.8144H28.2983V15.3774C28.2983 14.9375 28.6549 14.5809 29.0948 14.5809Z" fill="#252B42"/>
<path d="M33.8562 19.1723C33.8562 27.2983 27.2687 33.8857 19.1428 33.8857C11.0168 33.8857 4.42935 27.2983 4.42935 19.1723C4.42935 11.0463 11.0168 4.45889 19.1428 4.45889C27.2687 4.45889 33.8562 11.0463 33.8562 19.1723Z" stroke="#252B42" stroke-width="0.737611"/>
</svg>
