<svg width="93" height="79" viewBox="0 0 93 79" fill="none" xmlns="http://www.w3.org/2000/svg">
<path opacity="0.45" fill-rule="evenodd" clip-rule="evenodd" d="M93 12.3384C79.0707 19.1931 72.1061 27.2472 72.1061 36.5011C78.0432 37.1866 82.9527 39.6142 86.8346 43.7842C90.7165 47.9541 92.6575 52.7809 92.6575 58.2646C92.6575 64.0911 90.7736 69.0036 87.0059 73.0022C83.2381 77.0007 78.4999 79 72.7912 79C66.3974 79 60.86 76.401 56.1788 71.2028C51.4977 66.0047 49.1571 59.6927 49.1571 52.2668C49.1571 29.989 61.602 12.5669 86.4921 0L93 12.3384ZM43.8429 12.3384C29.7994 19.1931 22.7777 27.2472 22.7777 36.5011C28.829 37.1866 33.7955 39.6142 37.6775 43.7842C41.5594 47.9541 43.5003 52.7809 43.5003 58.2646C43.5003 64.0911 41.5879 69.0036 37.7631 73.0022C33.9382 77.0007 29.1715 79 23.4628 79C17.069 79 11.5602 76.401 6.93608 71.2028C2.312 66.0047 0 59.6927 0 52.2668C0 29.989 12.3878 12.5669 37.1637 0L43.8429 12.3384Z" fill="#2E8B57"/>
</svg>
