<svg width="64" height="64" viewBox="0 0 64 64" fill="none" xmlns="http://www.w3.org/2000/svg">
<rect opacity="0.14" width="64" height="64" rx="16" fill="#2E8B57"/>
<path fill-rule="evenodd" clip-rule="evenodd" d="M19.0672 48.86V29.2862H46.5566V48.86H19.0672ZM20.6673 31.376H23.6188V35.2811H20.6673V31.376ZM25.0713 35.2811V31.376H35.9712V35.2811H25.0713ZM37.4019 35.2903V31.376H40.5652V35.2903H37.4019ZM42.0097 35.2868V31.376H44.6674V35.2868H42.0097ZM41.9982 36.7094H44.6674V41.3761H41.9982V36.7094ZM40.5629 41.3761V36.7187H37.3962V41.3761H40.5629ZM35.9608 41.3761V36.7302H25.0495L25.0529 41.3761H35.9608ZM23.6199 41.3761V36.7199H20.6673V41.3761H23.6199ZM41.9982 42.8651L44.6674 42.8641V47.3761H41.9982V42.8651ZM40.5606 42.8651V47.3761H37.3985V42.8651H40.5606ZM35.9517 42.8662V47.3761H25.061V42.8662H35.9517ZM23.6279 42.8674V47.3761H20.6673V42.8674H23.6279Z" fill="#252B42"/>
<path fill-rule="evenodd" clip-rule="evenodd" d="M39.4913 24.1915C39.3086 24.1049 39.1205 24.0158 38.9249 23.9222C39.1096 23.8271 39.2863 23.7353 39.4575 23.6464C39.8765 23.4288 40.2629 23.2282 40.6506 23.0376C40.8109 22.9709 40.9466 22.8563 41.0392 22.7094C41.1319 22.5625 41.1768 22.3906 41.168 22.2172C41.168 22.083 41.1694 21.9489 41.1708 21.8151V21.8135C41.1736 21.5454 41.1764 21.2777 41.168 21.0102C41.1485 20.4205 40.9053 20.1818 40.3098 20.1818C39.3881 20.175 38.4683 20.175 37.5504 20.1818C36.9136 20.1853 36.6842 20.4102 36.6842 21.0355V23.9681C36.6844 24.0822 36.6841 24.1963 36.6838 24.3104C36.6826 24.6991 36.6815 25.0885 36.7037 25.4769C36.7243 25.8383 36.9526 26.0551 37.3164 26.0792C37.6996 26.1056 37.9405 25.9106 38.022 25.5319C38.045 25.425 38.061 25.3162 38.0787 25.1951C38.0857 25.1476 38.0931 25.0975 38.1011 25.0455C38.3097 25.1441 38.5149 25.2421 38.718 25.3391C39.1761 25.5579 39.6249 25.7722 40.0769 25.9771C40.5416 26.1871 40.9569 26.0563 41.1015 25.6788C41.2449 25.3151 41.0888 24.9709 40.6712 24.7609C40.2901 24.57 39.9045 24.3873 39.4913 24.1915ZM38.4872 22.5681C38.3549 22.635 38.2192 22.7035 38.0793 22.7749V21.5185C38.1951 21.5185 38.3102 21.5183 38.4248 21.5181C38.8237 21.5173 39.2172 21.5165 39.6111 21.5254C39.6707 21.5265 39.7866 21.6287 39.7786 21.6619C39.7545 21.7732 39.7132 21.9247 39.6294 21.9717C39.2638 22.1757 38.8911 22.364 38.4872 22.5681Z" fill="#252B42"/>
<path fill-rule="evenodd" clip-rule="evenodd" d="M29.7765 23.1109C29.7785 22.7218 29.8573 22.3369 30.0084 21.9784C30.1596 21.6198 30.3801 21.2947 30.6573 21.0216C30.9345 20.7486 31.263 20.533 31.6237 20.3873C31.9845 20.2416 32.3706 20.1686 32.7596 20.1725C33.5451 20.1715 34.2992 20.4804 34.8584 21.032C35.4175 21.5836 35.7365 22.3335 35.7462 23.1189C35.7565 24.7436 34.3831 26.094 32.7309 26.0802C32.3417 26.0801 31.9564 26.0031 31.5971 25.8536C31.2377 25.7041 30.9114 25.4852 30.6369 25.2093C30.3624 24.9334 30.1451 24.606 29.9974 24.2459C29.8498 23.8858 29.7747 23.5001 29.7765 23.1109ZM32.716 24.6919C33.0287 24.6955 33.3354 24.6064 33.5974 24.4358C33.8595 24.2652 34.0651 24.0208 34.1883 23.7334C34.3116 23.4461 34.3469 23.1286 34.2899 22.8212C34.2328 22.5138 34.086 22.2302 33.8679 22.0061C33.6498 21.7821 33.3702 21.6277 33.0644 21.5625C32.7586 21.4972 32.4403 21.524 32.1498 21.6395C31.8592 21.755 31.6094 21.954 31.4318 22.2114C31.2543 22.4688 31.157 22.773 31.1522 23.0856C31.1479 23.2942 31.1852 23.5015 31.2617 23.6955C31.3383 23.8895 31.4526 24.0664 31.5981 24.2159C31.7436 24.3653 31.9174 24.4844 32.1093 24.5661C32.3012 24.6478 32.5075 24.6906 32.716 24.6919Z" fill="#252B42"/>
<path d="M43.4904 22.4388V21.5393L44.0056 21.5244C44.2017 21.5244 44.3979 21.526 44.5943 21.5277C44.9871 21.531 45.3804 21.5343 45.7737 21.5244C46.2946 21.5083 46.586 21.241 46.5768 20.8199C46.5676 20.4183 46.2808 20.159 45.7828 20.159C44.8191 20.146 43.8561 20.146 42.8938 20.159C42.3729 20.1659 42.1446 20.4046 42.1044 20.9255V21.0551C42.1044 21.5152 42.1037 21.9757 42.1029 22.4361C42.1014 23.3567 42.0998 24.2784 42.1044 25.1959C42.1079 25.7478 42.3087 26.0507 42.7378 26.0599C43.8151 26.084 44.8936 26.0805 45.9721 26.0599C46.3336 26.053 46.547 25.804 46.5711 25.4437C46.5952 25.0835 46.4196 24.8276 46.0651 24.7461C45.838 24.705 45.6073 24.6877 45.3767 24.6945H43.4721C43.4721 24.6195 43.4716 24.5561 43.4712 24.4992C43.4705 24.401 43.4699 24.322 43.4721 24.2356C43.4744 24.1444 43.4787 24.0537 43.4834 23.956C43.4857 23.9075 43.4881 23.857 43.4904 23.8042C43.5886 23.8042 43.6804 23.806 43.7681 23.8077C43.9322 23.8109 44.0821 23.8139 44.2316 23.8042C44.6756 23.7824 44.9694 23.5013 44.9648 23.1158C44.9602 22.7302 44.6653 22.4572 44.2201 22.4388C44.0628 22.4335 43.9044 22.4352 43.7421 22.437C43.6594 22.4379 43.5756 22.4388 43.4904 22.4388Z" fill="#252B42"/>
<path d="M20.6183 23.3681C20.2267 22.7948 19.8451 22.236 19.4646 21.6754C19.4281 21.6206 19.3882 21.566 19.348 21.511C19.1359 21.2207 18.9154 20.9191 19.1353 20.512C19.3478 20.1256 19.7067 20.1361 20.0573 20.1463C20.1231 20.1482 20.1886 20.1502 20.2529 20.1494C21.0721 20.1414 21.8924 20.138 22.7128 20.1494C23.2142 20.1586 23.4964 20.4156 23.5067 20.8172C23.5171 21.2188 23.2474 21.4964 22.7942 21.5056C22.4283 21.5177 22.0623 21.5139 21.6757 21.5098C21.4748 21.5077 21.2675 21.5056 21.0526 21.5056C21.0959 21.5763 21.1322 21.6373 21.1648 21.692C21.2184 21.782 21.2617 21.8549 21.3096 21.9255L21.6539 22.4326L21.6547 22.4338C22.1936 23.2275 22.7327 24.0217 23.2773 24.8111C23.4677 25.0865 23.5997 25.3664 23.4402 25.6923C23.267 26.0434 22.9434 26.0767 22.5935 26.0732C21.9891 26.0671 21.3848 26.0691 20.7809 26.0712H20.7794C20.478 26.0722 20.1766 26.0732 19.8754 26.0732C19.3522 26.0732 19.0539 25.8162 19.0539 25.3974C19.0539 24.9786 19.3499 24.709 19.8685 24.701C20.1867 24.696 20.5054 24.6985 20.8481 24.7011C21.0637 24.7027 21.2894 24.7044 21.5299 24.7044C21.2208 24.2503 20.9211 23.8115 20.627 23.381L20.6225 23.3743L20.6216 23.373L20.6183 23.3681Z" fill="#252B42"/>
<path d="M28.2815 20.2798C26.4859 19.6396 24.3988 21.169 24.4046 23.1195C24.4091 25.07 26.4641 26.5616 28.2069 25.8663C28.7278 25.6575 28.9217 25.3282 28.7668 24.9186C28.6211 24.5365 28.2792 24.4229 27.7537 24.5824C27.0618 24.7924 26.4629 24.5503 26.0212 23.8814C25.6655 23.341 25.7263 22.6721 26.1577 22.1603C26.5891 21.6486 27.1077 21.4088 27.7961 21.566C28.3423 21.6899 28.6222 21.5695 28.7702 21.1817C28.9182 20.7938 28.7255 20.4382 28.2815 20.2798Z" fill="#252B42"/>
<path fill-rule="evenodd" clip-rule="evenodd" d="M33.8737 9.37034C33.7241 9.32273 33.5745 9.2751 33.4266 9.22363H32.2173C32.1852 9.23362 32.1532 9.24402 32.1211 9.25444C32.0464 9.27871 31.9715 9.30304 31.896 9.32231C30.4481 9.68257 29.2984 10.4605 28.7098 11.8545C28.4746 12.4121 28.1912 12.5475 27.6439 12.5165C27.0872 12.4853 26.5282 12.4921 25.9565 12.499C25.7093 12.502 25.4598 12.5051 25.2069 12.5051V14.0427H15.334V53.4426H50.373V14.0884H50.0008V14.0427H40.4082V12.5108C40.0759 12.5108 39.7481 12.5092 39.4232 12.5077C38.7822 12.5046 38.1527 12.5017 37.5238 12.5108C37.2805 12.5154 37.1773 12.4362 37.0958 12.2067C36.9111 11.6592 36.6151 11.1558 36.2262 10.7283C35.8374 10.3008 35.3643 9.95839 34.8367 9.72273C34.528 9.57864 34.2009 9.47451 33.8737 9.37034ZM48.4008 15.6427H40.3967V16.943H25.2012V15.6427H16.934V51.1094H48.4008V15.6427ZM32.5787 10.6062C33.9153 10.5396 35.2325 11.313 35.6915 12.4901H29.965C30.1314 11.6055 31.4944 10.6624 32.5787 10.6062Z" fill="#252B42"/>
</svg>
