<svg width="64" height="64" viewBox="0 0 64 64" fill="none" xmlns="http://www.w3.org/2000/svg">
<rect opacity="0.14" width="64" height="64" rx="16" fill="#2E8B57"/>
<g opacity="0.8">
<path d="M23.1788 50.3334C22.7405 49.8751 22.7014 49.262 23.0958 48.4675C23.642 47.3589 24.5281 46.7344 25.7695 46.6828C26.4379 46.6561 27.1063 46.6828 27.7747 46.6599C27.9469 46.6506 28.1107 46.5833 28.2398 46.469C28.8261 45.9084 29.3981 45.3326 29.9586 44.7501C30.0596 44.6401 30.119 44.4983 30.1266 44.3491C30.1343 37.0569 30.1362 29.764 30.1324 22.4705C30.1324 22.4123 30.1247 22.3531 30.119 22.269C30.028 22.2532 29.9362 22.2427 29.844 22.2375C28.1013 22.2375 26.3586 22.2375 24.6159 22.2585C23.7966 22.2681 23.0194 22.4934 22.244 22.8439C22.2975 22.9766 22.3395 23.1055 22.4006 23.2258C24.2588 27.2861 26.0932 31.3577 27.9953 35.3979C28.4403 36.3413 28.3286 37.1816 27.9304 38.0296C27.1942 39.6023 25.9251 40.497 24.1901 40.5371C21.925 40.5897 19.6543 40.5954 17.3903 40.498C15.4365 40.413 13.7139 38.5175 13.6662 36.5619C13.6627 36.2785 13.7217 35.9978 13.839 35.7397C15.7335 31.5783 17.6357 27.4204 19.5455 23.2659C19.5951 23.158 19.6409 23.0501 19.7106 22.8983L18.2678 22.1535L18.8121 21.0582L20.2005 21.7438C20.8966 20.746 21.1554 20.7364 21.7283 21.6904C22.095 21.5662 22.4569 21.3953 22.837 21.3266C23.6305 21.1833 24.4317 21.0239 25.2338 20.9962C26.7244 20.9436 28.2178 20.9809 29.7094 20.9809H30.1114V19.7815H28.9359V18.5516H29.9643C29.8259 17.9959 29.6979 17.4841 29.5709 16.9722C29.2157 15.5399 29.8765 14.2336 31.1751 13.8001C31.5918 13.6587 32.0383 13.6291 32.47 13.7144C32.9016 13.7997 33.3034 13.9968 33.6349 14.2861C33.9665 14.5753 34.2164 14.9465 34.3595 15.3626C34.5026 15.7787 34.5339 16.2251 34.4504 16.6571C34.3311 17.2749 34.1639 17.8832 34.0073 18.5297H35.0186V19.771H33.8498V20.9847H34.2184C35.6144 20.9847 37.0114 20.9904 38.4075 20.9847C39.6708 20.979 40.9036 21.1346 42.0705 21.6531C42.1243 21.6717 42.1795 21.6858 42.2357 21.6952C42.6711 20.7049 43.3815 20.8109 43.7454 21.7582L45.1548 21.0649L45.7019 22.1611L44.2696 22.8878C44.3116 23.0005 44.3384 23.0903 44.3766 23.1743C46.343 27.4599 48.3088 31.7464 50.274 36.0339C50.2826 36.053 50.3064 36.0654 50.3236 36.0816V36.8694C50.2937 36.9443 50.2688 37.0212 50.2492 37.0995C49.9111 38.9234 48.325 40.4417 46.4716 40.5123C44.2553 40.5992 42.0313 40.6183 39.815 40.5391C37.7142 40.4646 36.2122 39.1411 35.75 37.1883C35.6089 36.6458 35.664 36.0708 35.9057 35.565C37.8031 31.4695 39.6746 27.3625 41.5558 23.2602C41.6169 23.1256 41.6713 22.9881 41.7277 22.8553C40.9972 22.4992 40.0919 22.2614 39.3538 22.2557C37.6111 22.2433 35.8684 22.2413 34.1257 22.2375C34.0335 22.2427 33.9417 22.2532 33.8507 22.269C33.845 22.3531 33.8374 22.4123 33.8374 22.4705C33.8374 29.7634 33.8393 37.0562 33.8431 44.3491C33.8507 44.4983 33.9102 44.6401 34.0112 44.7501C34.5745 45.3345 35.1465 45.9103 35.73 46.469C35.859 46.5833 36.0229 46.6506 36.195 46.6599C36.8634 46.6838 37.5319 46.6599 38.2003 46.6828C39.4474 46.7344 40.3316 47.3589 40.874 48.4675C41.2655 49.262 41.2292 49.8751 40.7909 50.3334H23.1788ZM48.7366 35.6366C46.8676 31.5573 45.0081 27.4993 43.1581 23.4627C42.8525 23.3595 42.7761 23.5581 42.6807 23.7587C41.051 27.3204 39.4197 30.8812 37.7868 34.4411C37.6102 34.8288 37.4345 35.2165 37.2435 35.6366H48.7366ZM26.7234 35.6366C26.6661 35.501 26.6279 35.3922 26.5754 35.2871C24.8165 31.4446 23.055 27.6028 21.291 23.7615C21.2327 23.6355 21.0867 23.5496 20.9816 23.4445C20.8794 23.5524 20.741 23.6422 20.6818 23.7701C18.9139 27.6088 17.1512 31.45 15.3936 35.2938C15.3458 35.3989 15.3076 35.5087 15.2561 35.6366H26.7234ZM14.983 36.9066C15.2074 38.2005 16.4153 39.2815 17.6968 39.2986C19.8558 39.3282 22.0158 39.3197 24.1748 39.3053C25.0714 39.2986 25.8057 38.8957 26.3787 38.2177C26.6928 37.8472 26.9335 37.429 26.9889 36.9066H14.983ZM48.9772 36.9124H37.0009C36.9993 36.9762 37.0031 37.0401 37.0124 37.1033C37.2845 38.2406 38.4705 39.2776 39.6422 39.2948C41.8703 39.3273 44.1009 39.3273 46.3341 39.2948C47.5907 39.2767 48.8197 38.1346 48.9811 36.9133L48.9772 36.9124ZM32.5626 44.1982V22.2624H31.4167V44.1982H32.5626ZM39.7816 49.1112C39.5295 48.3472 38.8668 47.9013 38.0007 47.9003C33.9902 47.9003 29.9796 47.9003 25.969 47.9003C25.8974 47.9003 25.8258 47.9003 25.7551 47.9003C25.0122 47.95 24.3171 48.4943 24.2168 49.1073L39.7816 49.1112ZM31.9686 18.543C32.0876 18.5354 32.2068 18.5354 32.3258 18.543C32.6122 18.5793 32.7736 18.4953 32.8338 18.1716C32.9407 17.5986 33.1097 17.0419 33.2386 16.4747C33.3618 15.9295 33.1613 15.4243 32.7115 15.1379C32.4987 14.9921 32.2467 14.9141 31.9887 14.9141C31.7307 14.9141 31.4787 14.9921 31.2658 15.1379C30.8151 15.4186 30.6156 15.9276 30.7368 16.4747C30.839 16.9388 30.9564 17.3991 31.071 17.8603C31.241 18.544 31.2429 18.543 31.9686 18.543ZM34.1095 46.6523C33.1346 45.4558 33.1346 45.4558 31.6917 45.4558C31.537 45.4558 31.3823 45.4558 31.2267 45.4558C31.156 45.4558 31.0586 45.4377 31.0185 45.4759C30.6308 45.8464 30.2546 46.2274 29.8259 46.6513L34.1095 46.6523ZM32.553 20.9656V19.8054H31.4148V20.9656H32.553Z" fill="#252B42"/>
</g>
</svg>
