<svg width="42" height="42" viewBox="0 0 42 42" fill="none" xmlns="http://www.w3.org/2000/svg">
<path d="M12.5804 38.5C12.162 38.0625 12.1247 37.4773 12.5011 36.7189C13.0225 35.6607 13.8683 35.0646 15.0533 35.0154C15.6913 34.9898 16.3294 35.0154 16.9674 34.9935C17.1317 34.9846 17.2882 34.9203 17.4113 34.8112C17.971 34.2762 18.517 33.7265 19.052 33.1705C19.1484 33.0655 19.2051 32.9301 19.2124 32.7877C19.2197 25.8269 19.2215 18.8656 19.2179 11.9036C19.2179 11.848 19.2106 11.7915 19.2051 11.7113C19.1183 11.6962 19.0306 11.6861 18.9426 11.6812C17.2791 11.6812 15.6157 11.6812 13.9522 11.7013C13.1701 11.7104 12.4282 11.9255 11.6881 12.26C11.7391 12.3867 11.7792 12.5097 11.8375 12.6246C13.6113 16.5003 15.3623 20.3869 17.178 24.2434C17.6027 25.1439 17.4961 25.946 17.116 26.7554C16.4132 28.2567 15.2019 29.1107 13.5457 29.149C11.3836 29.1991 9.2161 29.2046 7.05495 29.1116C5.19004 29.0305 3.54571 27.2212 3.50014 25.3545C3.49683 25.0839 3.55316 24.816 3.66512 24.5697C5.47352 20.5974 7.28921 16.6285 9.11219 12.6629C9.15959 12.5599 9.20334 12.4569 9.26988 12.312L7.89261 11.601L8.41216 10.5555L9.73747 11.21C10.4019 10.2574 10.649 10.2483 11.1959 11.1589C11.5459 11.0404 11.8913 10.8773 12.2541 10.8116C13.0115 10.6749 13.7763 10.5227 14.5419 10.4963C15.9648 10.4461 17.3904 10.4817 18.8141 10.4817H19.1978V9.33684H18.0758V8.16284H19.0575C18.9253 7.63235 18.8032 7.1438 18.6819 6.65524C18.3429 5.288 18.9736 4.04108 20.2132 3.62726C20.611 3.49228 21.0372 3.46409 21.4492 3.5455C21.8613 3.62691 22.2447 3.81507 22.5612 4.09117C22.8778 4.36727 23.1162 4.72162 23.2528 5.1188C23.3895 5.51599 23.4194 5.94207 23.3397 6.35445C23.2257 6.94418 23.0662 7.5248 22.9167 8.14188H23.882V9.32682H22.7663V10.4853H23.1182C24.4508 10.4853 25.7843 10.4908 27.1169 10.4853C28.3228 10.4799 29.4995 10.6284 30.6134 11.1234C30.6647 11.1411 30.7175 11.1545 30.771 11.1635C31.1867 10.2183 31.8648 10.3194 32.2121 11.2236L33.5575 10.5619L34.0798 11.6083L32.7125 12.3019C32.7526 12.4095 32.7781 12.4952 32.8146 12.5754C34.6917 16.6661 36.5681 20.7578 38.444 24.8504C38.4522 24.8687 38.475 24.8805 38.4914 24.896V25.648C38.4628 25.7195 38.439 25.7929 38.4203 25.8676C38.0976 27.6086 36.5836 29.0579 34.8144 29.1253C32.6988 29.2083 30.576 29.2265 28.4604 29.1508C26.4551 29.0797 25.0214 27.8164 24.5802 25.9524C24.4455 25.4345 24.4981 24.8857 24.7288 24.4029C26.5399 20.4935 28.3264 16.5732 30.1221 12.6574C30.1804 12.5289 30.2323 12.3976 30.2861 12.2709C29.5888 11.9309 28.7247 11.704 28.0202 11.6985C26.3567 11.6867 24.6932 11.6848 23.0297 11.6812C22.9417 11.6861 22.8541 11.6962 22.7672 11.7113C22.7618 11.7915 22.7545 11.848 22.7545 11.9036C22.7545 18.865 22.7563 25.8263 22.7599 32.7877C22.7672 32.9301 22.824 33.0655 22.9204 33.1705C23.4581 33.7283 24.0041 34.278 24.5611 34.8112C24.6842 34.9203 24.8407 34.9846 25.0049 34.9935C25.643 35.0163 26.281 34.9935 26.9191 35.0154C28.1095 35.0646 28.9535 35.6607 29.4713 36.7189C29.845 37.4773 29.8103 38.0625 29.392 38.5H12.5804ZM36.9765 24.4712C35.1924 20.5774 33.4174 16.7038 31.6515 12.8506C31.3599 12.7522 31.2869 12.9418 31.1958 13.1332C29.6402 16.5331 28.0831 19.932 26.5244 23.3301C26.3558 23.7001 26.1881 24.0702 26.0058 24.4712H36.9765ZM15.9639 24.4712C15.9092 24.3418 15.8727 24.2379 15.8226 24.1376C14.1436 20.4698 12.4622 16.8026 10.7784 13.1359C10.7228 13.0156 10.5833 12.9336 10.4831 12.8333C10.3855 12.9363 10.2534 13.022 10.1969 13.1441C8.50939 16.8083 6.82678 20.475 5.14902 24.144C5.10345 24.2443 5.06699 24.3491 5.01777 24.4712H15.9639ZM4.75708 25.6835C4.97129 26.9186 6.12432 27.9504 7.34754 27.9668C9.40842 27.9951 11.4702 27.9869 13.5311 27.9732C14.387 27.9668 15.0879 27.5822 15.6348 26.935C15.9347 26.5813 16.1644 26.1821 16.2173 25.6835H4.75708ZM37.2062 25.689H25.7742C25.7726 25.75 25.7763 25.811 25.7852 25.8713C26.045 26.9569 27.177 27.9468 28.2954 27.9632C30.4222 27.9942 32.5515 27.9942 34.6832 27.9632C35.8827 27.9458 37.0558 26.8557 37.2098 25.6899L37.2062 25.689ZM21.5376 32.6437V11.7049H20.4438V32.6437H21.5376ZM28.4285 37.3333C28.1879 36.6041 27.5553 36.1784 26.7286 36.1775C22.9003 36.1775 19.0721 36.1775 15.2438 36.1775C15.1754 36.1775 15.1071 36.1775 15.0396 36.1775C14.3305 36.2249 13.6669 36.7445 13.5712 37.3296L28.4285 37.3333ZM20.9707 8.15464C21.0842 8.14734 21.1981 8.14734 21.3116 8.15464C21.585 8.18928 21.7391 8.10907 21.7965 7.80007C21.8986 7.25318 22.0599 6.72177 22.183 6.18035C22.3006 5.65989 22.1091 5.17771 21.6798 4.90426C21.4766 4.76514 21.2361 4.69069 20.9898 4.69069C20.7436 4.69069 20.503 4.76514 20.2998 4.90426C19.8696 5.17224 19.6791 5.65806 19.7949 6.18035C19.8924 6.62333 20.0045 7.06267 20.1139 7.50292C20.2761 8.15555 20.278 8.15464 20.9707 8.15464ZM23.0143 34.9862C22.0836 33.8441 22.0836 33.8441 20.7064 33.8441C20.5587 33.8441 20.411 33.8441 20.2625 33.8441C20.195 33.8441 20.102 33.8268 20.0638 33.8632C19.6937 34.2169 19.3346 34.5806 18.9253 34.9853L23.0143 34.9862ZM21.5285 10.4671V9.35963H20.442V10.4671H21.5285Z" fill="#252B42"/>
</svg>
