<svg width="42" height="42" viewBox="0 0 42 42" fill="none" xmlns="http://www.w3.org/2000/svg">
<path d="M6.33511 30.24C6.50684 30.6716 6.84301 31.0174 7.26965 31.2012C7.6963 31.385 8.17848 31.3917 8.61012 31.22C9.04175 31.0483 9.3875 30.7121 9.57128 30.2855C9.75507 29.8588 9.76184 29.3766 9.59012 28.945L7.63012 24.01L19.2501 21.4375V29.75C19.2501 30.2141 19.4345 30.6593 19.7627 30.9874C20.0909 31.3156 20.536 31.5 21.0001 31.5C21.4642 31.5 21.9094 31.3156 22.2376 30.9874C22.5657 30.6593 22.7501 30.2141 22.7501 29.75V21.4375L34.3701 24.01L32.4101 28.945C32.3249 29.1587 32.2826 29.3871 32.2857 29.6172C32.2889 29.8472 32.3373 30.0744 32.4283 30.2857C32.5194 30.497 32.6512 30.6883 32.8162 30.8486C32.9812 31.0089 33.1763 31.1351 33.3901 31.22C33.5962 31.3015 33.816 31.343 34.0376 31.3425C34.3881 31.3428 34.7306 31.2379 35.0208 31.0414C35.311 30.8448 35.5354 30.5656 35.6651 30.24L38.3776 23.3975C38.4707 23.1608 38.5111 22.9067 38.496 22.6528C38.4809 22.399 38.4106 22.1514 38.2901 21.9275C38.1732 21.7044 38.0094 21.5091 37.8101 21.3551C37.6108 21.201 37.3805 21.0919 37.1351 21.035L31.5001 19.7925V12.25C31.5001 11.7859 31.3157 11.3408 30.9876 11.0126C30.6594 10.6844 30.2142 10.5 29.7501 10.5H26.2501V5.25C26.2501 4.78587 26.0657 4.34075 25.7376 4.01256C25.4094 3.68437 24.9642 3.5 24.5001 3.5H17.5001C17.036 3.5 16.5909 3.68437 16.2627 4.01256C15.9345 4.34075 15.7501 4.78587 15.7501 5.25V10.5H12.2501C11.786 10.5 11.3409 10.6844 11.0127 11.0126C10.6845 11.3408 10.5001 11.7859 10.5001 12.25V19.7925L4.86512 21C4.6197 21.0569 4.38946 21.166 4.19012 21.3201C3.99078 21.4741 3.82705 21.6694 3.71012 21.8925C3.58959 22.1165 3.51933 22.364 3.50422 22.6179C3.48911 22.8717 3.52951 23.1258 3.62262 23.3625L6.33511 30.24ZM19.2501 7H22.7501V10.5H19.2501V7ZM14.0001 14H28.0001V19.005L21.3851 17.5H21.2101H21.0001H20.7901H20.6151L14.0001 19.005V14ZM36.2426 33.74C35.6286 33.9282 35.0407 34.1927 34.4926 34.5275C33.9351 34.8535 33.3009 35.0253 32.6551 35.0253C32.0093 35.0253 31.3751 34.8535 30.8176 34.5275C29.6053 33.8436 28.237 33.4843 26.8451 33.4843C25.4532 33.4843 24.0849 33.8436 22.8726 34.5275C22.3075 34.8497 21.6682 35.0192 21.0176 35.0192C20.3671 35.0192 19.7277 34.8497 19.1626 34.5275C17.9492 33.8469 16.5813 33.4894 15.1901 33.4894C13.7989 33.4894 12.431 33.8469 11.2176 34.5275C10.6601 34.8535 10.0259 35.0253 9.38012 35.0253C8.7343 35.0253 8.10011 34.8535 7.54261 34.5275C6.99457 34.1927 6.40663 33.9282 5.79261 33.74C5.55976 33.6572 5.31202 33.6247 5.06569 33.6445C4.81936 33.6644 4.58003 33.7362 4.36345 33.8553C4.14688 33.9743 3.95797 34.1378 3.80916 34.3352C3.66036 34.5325 3.55503 34.7591 3.50012 35C3.36947 35.4432 3.41943 35.9201 3.63909 36.3267C3.85875 36.7332 4.23028 37.0364 4.67262 37.17C5.025 37.2655 5.36119 37.4129 5.67012 37.6075C6.73185 38.2305 7.93911 38.5625 9.17011 38.57C10.4487 38.5702 11.7045 38.2321 12.8101 37.59C13.4961 37.2116 14.2667 37.0131 15.0501 37.0131C15.8335 37.0131 16.6042 37.2116 17.2901 37.59C18.3879 38.2177 19.6305 38.5479 20.8951 38.5479C22.1597 38.5479 23.4023 38.2177 24.5001 37.59C25.1861 37.2116 25.9567 37.0131 26.7401 37.0131C27.5235 37.0131 28.2942 37.2116 28.9801 37.59C30.0648 38.2374 31.3044 38.5792 32.5676 38.5792C33.8308 38.5792 35.0704 38.2374 36.1551 37.59C36.464 37.3954 36.8002 37.248 37.1526 37.1525C37.3855 37.1054 37.6064 37.0113 37.8017 36.8761C37.9971 36.7408 38.1629 36.5672 38.2889 36.3658C38.415 36.1644 38.4988 35.9395 38.5351 35.7046C38.5714 35.4698 38.5595 35.2301 38.5001 35C38.4445 34.7632 38.3401 34.5405 38.1936 34.3463C38.0471 34.1521 37.8618 33.9905 37.6493 33.872C37.4369 33.7534 37.2021 33.6804 36.9599 33.6577C36.7177 33.635 36.4734 33.663 36.2426 33.74Z" fill="#252B42"/>
</svg>
