<svg width="42" height="42" viewBox="0 0 42 42" fill="none" xmlns="http://www.w3.org/2000/svg">
<path fill-rule="evenodd" clip-rule="evenodd" d="M32.0977 19.7812C32.0977 23.7681 28.8657 27 24.8789 27C20.8921 27 17.6602 23.7681 17.6602 19.7812C17.6602 15.7944 20.8921 12.5625 24.8789 12.5625C28.8657 12.5625 32.0977 15.7944 32.0977 19.7812Z" stroke="#252B42" stroke-width="2.12121"/>
<g clip-path="url(#clip0_1705_12474)">
<line x1="36.9433" y1="20.1856" x2="35.127" y2="20.1856" stroke="#F25022" stroke-width="2.12121" stroke-linecap="round" stroke-linejoin="round"/>
</g>
<g clip-path="url(#clip1_1705_12474)">
<line x1="14.6347" y1="20.1856" x2="12.8184" y2="20.1856" stroke="#F25022" stroke-width="2.12121" stroke-linecap="round" stroke-linejoin="round"/>
</g>
<g clip-path="url(#clip2_1705_12474)">
<line x1="36.9433" y1="20.1856" x2="35.127" y2="20.1856" stroke="#252B42" stroke-width="2.12121" stroke-linecap="round" stroke-linejoin="round"/>
</g>
<g clip-path="url(#clip3_1705_12474)">
<line x1="14.6347" y1="20.1856" x2="12.8184" y2="20.1856" stroke="#252B42" stroke-width="2.12121" stroke-linecap="round" stroke-linejoin="round"/>
</g>
<g clip-path="url(#clip4_1705_12474)">
<line x1="35.1215" y1="26.1637" x2="33.5485" y2="25.2556" stroke="#252B42" stroke-width="2.12121" stroke-linecap="round" stroke-linejoin="round"/>
</g>
<g clip-path="url(#clip5_1705_12474)">
<line x1="30.559" y1="30.4315" x2="29.6509" y2="28.8585" stroke="#252B42" stroke-width="2.12121" stroke-linecap="round" stroke-linejoin="round"/>
</g>
<g clip-path="url(#clip6_1705_12474)">
<line x1="19.4027" y1="11.1083" x2="18.4946" y2="9.5353" stroke="#252B42" stroke-width="2.12121" stroke-linecap="round" stroke-linejoin="round"/>
</g>
<g clip-path="url(#clip7_1705_12474)">
<line x1="24.4785" y1="31.8456" x2="24.4785" y2="30.0294" stroke="#252B42" stroke-width="2.12121" stroke-linecap="round" stroke-linejoin="round"/>
</g>
<g clip-path="url(#clip8_1705_12474)">
<line x1="24.4785" y1="9.53314" x2="24.4785" y2="7.71686" stroke="#252B42" stroke-width="2.12121" stroke-linecap="round" stroke-linejoin="round"/>
</g>
<g clip-path="url(#clip9_1705_12474)">
<line x1="18.4946" y1="30.0271" x2="19.4027" y2="28.4542" stroke="#252B42" stroke-width="2.12121" stroke-linecap="round" stroke-linejoin="round"/>
</g>
<g clip-path="url(#clip10_1705_12474)">
<line x1="29.6548" y1="10.7041" x2="30.5629" y2="9.13119" stroke="#252B42" stroke-width="2.12121" stroke-linecap="round" stroke-linejoin="round"/>
</g>
<g clip-path="url(#clip11_1705_12474)">
<line x1="14.2281" y1="25.4632" x2="15.801" y2="24.555" stroke="#252B42" stroke-width="2.12121" stroke-linecap="round" stroke-linejoin="round"/>
</g>
<g clip-path="url(#clip12_1705_12474)">
<line x1="33.5562" y1="14.3072" x2="35.1291" y2="13.399" stroke="#252B42" stroke-width="2.12121" stroke-linecap="round" stroke-linejoin="round"/>
</g>
<path fill-rule="evenodd" clip-rule="evenodd" d="M25.5862 23.3373C25.5862 23.3373 25.7474 24.1563 25.8024 24.1641C28.772 24.5876 31 26.3197 31 29.4063C31 32.789 28.2577 35.5313 24.875 35.5313H9.125C5.74226 35.5313 3 32.789 3 29.4063C3 26.3197 5.28307 23.7664 8.2526 23.3429C8.30762 23.3351 8.36153 23.3334 8.41385 23.3373C9.20277 19.3155 12.747 16.2812 17 16.2812C21.253 16.2812 24.7972 19.3155 25.5862 23.3373Z" fill="#F9FCFA"/>
<path d="M9.58824 35.5313C5.94965 35.5313 3 32.6584 3 29.1146C3 26.0192 5.25035 23.4358 8.24456 22.8315C9.27389 19.0601 12.8038 16.2812 17 16.2812C21.7438 16.2812 25.636 19.8326 26.0266 24.3545C28.8359 24.7302 31 27.0773 31 29.9167C31 33.0175 28.4191 35.5313 25.2353 35.5313H9.58824Z" stroke="#252B42" stroke-width="2.12121" stroke-linecap="round" stroke-linejoin="round"/>
<defs>
<clipPath id="clip0_1705_12474">
<rect x="33.4102" y="18.4688" width="5.25" height="2.625" rx="1.3125" fill="white"/>
</clipPath>
<clipPath id="clip1_1705_12474">
<rect x="11.0977" y="18.4688" width="5.25" height="2.625" rx="1.3125" fill="white"/>
</clipPath>
<clipPath id="clip2_1705_12474">
<rect x="33.4102" y="18.4688" width="5.25" height="2.625" rx="1.3125" fill="white"/>
</clipPath>
<clipPath id="clip3_1705_12474">
<rect x="11.0977" y="18.4688" width="5.25" height="2.625" rx="1.3125" fill="white"/>
</clipPath>
<clipPath id="clip4_1705_12474">
<rect x="32.9219" y="22.9103" width="5.25" height="2.625" rx="1.3125" transform="rotate(30 32.9219 22.9103)" fill="white"/>
</clipPath>
<clipPath id="clip5_1705_12474">
<rect x="30.2812" y="26.5133" width="5.25" height="2.625" rx="1.3125" transform="rotate(60 30.2812 26.5133)" fill="white"/>
</clipPath>
<clipPath id="clip6_1705_12474">
<rect x="19.125" y="7.19006" width="5.25" height="2.625" rx="1.3125" transform="rotate(60 19.125 7.19006)" fill="white"/>
</clipPath>
<clipPath id="clip7_1705_12474">
<rect x="26.1914" y="28.3125" width="5.25" height="2.625" rx="1.3125" transform="rotate(90 26.1914 28.3125)" fill="white"/>
</clipPath>
<clipPath id="clip8_1705_12474">
<rect x="26.1914" y="6" width="5.25" height="2.625" rx="1.3125" transform="rotate(90 26.1914 6)" fill="white"/>
</clipPath>
<clipPath id="clip9_1705_12474">
<rect x="21.75" y="27.8258" width="5.25" height="2.625" rx="1.3125" transform="rotate(120 21.75 27.8258)" fill="white"/>
</clipPath>
<clipPath id="clip10_1705_12474">
<rect x="32.9062" y="8.50269" width="5.25" height="2.625" rx="1.3125" transform="rotate(120 32.9062 8.50269)" fill="white"/>
</clipPath>
<clipPath id="clip11_1705_12474">
<rect x="18.1445" y="25.1835" width="5.25" height="2.625" rx="1.3125" transform="rotate(150 18.1445 25.1835)" fill="white"/>
</clipPath>
<clipPath id="clip12_1705_12474">
<rect x="37.4727" y="14.0273" width="5.25" height="2.625" rx="1.3125" transform="rotate(150 37.4727 14.0273)" fill="white"/>
</clipPath>
</defs>
</svg>
