<svg width="64" height="64" viewBox="0 0 64 64" fill="none" xmlns="http://www.w3.org/2000/svg">
<rect opacity="0.14" width="64" height="64" rx="16" fill="#2E8B57"/>
<g opacity="0.8">
<path d="M49.4966 30.202C49.5577 31.9333 49.5577 33.8766 49.0495 35.7821C47.9893 39.7613 45.5144 42.5783 41.8978 44.4391C39.5554 45.646 37.0347 46.2601 34.4203 46.5147C33.5587 46.5992 32.695 46.6339 31.8293 46.6634C31.5499 46.6804 31.2703 46.6343 31.0111 46.5285C30.7519 46.4227 30.5199 46.26 30.3322 46.0523C29.4206 45.0939 28.7322 43.9838 28.1353 42.8146C26.901 40.3958 26.0984 37.8537 26.1045 35.115C26.1106 31.7877 27.4458 29.0042 29.7221 26.6414C31.4637 24.8306 33.5464 23.4994 35.7718 22.3791C38.9555 20.7768 42.1443 19.1832 45.3382 17.5985C46.3903 17.0729 47.2407 17.3296 47.806 18.3644C48.3987 19.4511 48.6452 20.6478 48.8529 21.8495C49.3163 24.5393 49.4426 27.2586 49.4966 30.202ZM30.2731 39.637C30.3261 39.5861 30.3393 39.58 30.3413 39.5718C31.2009 35.5387 33.244 32.2382 36.4705 29.6703C37.7678 28.6444 39.2127 27.8203 40.7562 27.226C41.3805 26.9816 41.962 27.0692 42.4641 27.5091C42.9438 27.9287 43.1078 28.4757 42.9733 29.0969C42.8155 29.8099 42.2747 30.1317 41.6493 30.3914C36.6385 32.463 33.1798 37.6062 33.137 43.0041C33.137 43.2811 33.2083 43.3371 33.4782 43.3188C35.3899 43.1833 37.2567 42.833 39.0482 42.1384C43.4734 40.4233 46.2559 36.9595 46.2681 31.8885C46.2742 29.4809 46.2436 27.0804 45.9483 24.688C45.8057 23.532 45.6427 22.3791 45.3953 21.2181C45.2588 21.2833 45.1447 21.3352 45.0327 21.3912C42.7289 22.5431 40.4292 23.7001 38.1224 24.8438C36.3788 25.7085 34.6668 26.6241 33.1686 27.886C30.6723 29.986 29.1457 32.5434 29.3758 35.9318C29.453 37.2103 29.7568 38.4649 30.2731 39.637V39.637Z" fill="#252B42"/>
<path d="M17.7847 21.2088C17.4 23.1844 17.1388 25.1821 17.0025 27.1902C16.8844 28.8809 16.9211 30.5726 16.9241 32.2652C16.928 34.3968 17.5875 36.4756 18.8131 38.2195C20.0387 39.9635 21.7711 41.2882 23.7753 42.014C24.3426 42.2177 24.807 42.5171 25.0056 43.1098C25.2185 43.7464 25.0851 44.332 24.6084 44.7954C24.1318 45.2588 23.538 45.3882 22.8842 45.161C21.1571 44.578 19.5688 43.645 18.2186 42.4203C15.2161 39.6705 13.6915 36.2474 13.6681 32.1797C13.6518 29.4431 13.7282 26.7075 14.0317 23.9841C14.2221 22.2792 14.4564 20.5784 15.0939 18.9672C15.1816 18.7426 15.2861 18.5251 15.4066 18.3164C15.9729 17.3417 16.8223 17.0942 17.8356 17.5973C20.208 18.7808 22.5796 19.9663 24.9506 21.1538C25.7898 21.5734 26.6352 21.9828 27.4652 22.4218C27.78 22.5825 28.0329 22.8429 28.1843 23.1623C28.3357 23.4818 28.3772 23.8423 28.3024 24.1878C28.2303 24.5196 28.0576 24.821 27.8079 25.051C27.5582 25.2811 27.2436 25.4284 26.9071 25.4731C26.5119 25.5322 26.1585 25.4059 25.8102 25.2307C23.2491 23.9447 20.686 22.6604 18.1208 21.3779L17.7847 21.2088Z" fill="#252B42"/>
</g>
</svg>
