<svg width="80" height="80" viewBox="0 0 80 80" fill="none" xmlns="http://www.w3.org/2000/svg">
<path d="M36.004 72.5011C34.5212 72.1502 33.1933 71.5456 32.2147 70.3182C31.3551 69.2757 30.8784 67.9705 30.8637 66.6195C30.8472 65.5881 30.8786 64.5551 30.8456 63.5238C30.8329 63.2499 30.7298 62.988 30.5523 62.7791C29.4563 61.6199 28.8583 60.0773 28.8867 58.4823C28.8867 55.6271 27.9641 53.169 25.9426 51.052C19.8467 44.6711 19.2668 35.0907 24.5389 28.0162C27.3397 24.2516 31.1191 21.9616 35.7915 21.2367C41.7226 20.3157 46.8777 21.9352 51.209 26.0458C53.9166 28.5968 55.7018 31.9736 56.2851 35.6476C57.1731 40.9065 55.9556 45.658 52.6753 49.8624C52.0559 50.6566 51.3079 51.3452 50.6983 52.1492C49.3061 53.9483 48.6768 56.0357 48.6834 58.2846C48.6834 60.0475 48.1595 61.5467 46.9551 62.8285C46.7961 63.0257 46.7074 63.2704 46.7031 63.5238C46.6734 64.4678 46.6932 65.4118 46.6899 66.3559C46.6783 69.4631 44.8331 71.74 41.7934 72.4023C41.7107 72.4285 41.6302 72.4616 41.5529 72.5011H36.004ZM38.7405 60.6389C39.9927 60.6389 41.2448 60.6488 42.4969 60.6389C43.8644 60.6257 44.7013 59.83 44.6997 58.4807C44.6914 54.5711 45.9963 51.2035 48.7032 48.3566C51.5962 45.3136 52.8945 41.6775 52.5056 37.4829C52.1366 33.4877 50.3375 30.2486 47.1726 27.8152C43.899 25.3011 40.169 24.4773 36.121 25.2072C32.475 25.8662 29.5852 27.7658 27.4435 30.7808C25.5109 33.5008 24.7893 36.5471 25.0331 39.862C25.2111 42.2805 25.9393 44.508 27.3397 46.4718C28.1404 47.5922 29.1322 48.5724 29.9839 49.6598C31.9873 52.2036 32.8408 55.1378 32.8408 58.3538C32.8408 59.8366 33.6349 60.6307 35.1176 60.6406C36.3253 60.6472 37.5329 60.6406 38.7405 60.6406V60.6389ZM34.8178 64.6227C34.8178 65.196 34.8178 65.7397 34.8178 66.2817C34.8144 66.4574 34.8243 66.6331 34.8474 66.8073C35.0122 67.8106 35.7503 68.5059 36.7866 68.5355C38.1046 68.5734 39.4226 68.5701 40.7407 68.5355C41.7193 68.5125 42.4755 67.9342 42.6287 67.0132C42.7589 66.2306 42.721 65.4201 42.7556 64.621L34.8178 64.6227Z" fill="white"/>
<path d="M72.5016 39.2709C72.0073 40.3962 71.1341 40.7685 69.9232 40.7372C67.5145 40.673 65.1025 40.7208 62.6906 40.7175C61.3725 40.7175 60.4977 39.9085 60.5109 38.7108C60.5257 37.5493 61.394 36.7716 62.6906 36.77C65.1025 36.77 67.5145 36.8145 69.9232 36.7502C71.1341 36.7189 72.0024 37.0913 72.5016 38.2165V39.2709Z" fill="white"/>
<path d="M40.7168 11.0739C40.7168 12.3672 40.7168 13.6605 40.7168 14.9538C40.7069 16.1598 39.86 17.0149 38.7101 17.0001C37.5963 16.9852 36.7759 16.1318 36.7726 14.9489C36.766 12.3205 36.7627 9.68832 36.7627 7.05228C36.7627 5.84629 37.6194 4.99122 38.7694 5.00605C39.8831 5.02088 40.6986 5.8743 40.7069 7.05722C40.7168 8.39996 40.7168 9.7361 40.7168 11.0739Z" fill="white"/>
<path d="M10.9752 40.7282C9.68193 40.7282 8.38862 40.7282 7.09531 40.7282C5.8679 40.7282 5.00789 39.9044 5.00295 38.7676C4.99801 37.6308 5.85637 36.7906 7.07389 36.7906C9.68138 36.784 12.2894 36.784 14.898 36.7906C16.1254 36.7906 16.9854 37.6144 16.9904 38.7511C16.9953 39.8879 16.1369 40.7282 14.9194 40.7282C13.6047 40.7348 12.29 40.7282 10.9752 40.7282Z" fill="white"/>
<path d="M23.943 21.7362C23.8672 22.7428 23.541 23.3376 22.877 23.7132C22.5734 23.894 22.2246 23.9848 21.8713 23.9749C21.5181 23.9649 21.1749 23.8548 20.8819 23.6572C20.7147 23.552 20.5604 23.4276 20.4222 23.2865C18.6198 21.4907 16.8092 19.7031 15.0266 17.8876C13.8189 16.6601 14.3132 14.8413 15.9327 14.4508C16.2558 14.3701 16.5946 14.378 16.9135 14.4737C17.2325 14.5694 17.5197 14.7493 17.745 14.9945C19.6182 16.843 21.4865 18.6965 23.3169 20.5961C23.653 20.9355 23.8046 21.4742 23.943 21.7362Z" fill="white"/>
<path d="M55.7594 24.0002C54.7379 23.9145 54.13 23.5801 53.7659 22.8766C53.5765 22.5507 53.4934 22.1738 53.5283 21.7985C53.5631 21.4232 53.7141 21.0681 53.9603 20.7826C54.3315 20.3498 54.7264 19.9378 55.1432 19.5486C56.6293 18.057 58.1181 16.5688 59.6097 15.0838C60.1912 14.5071 60.8733 14.2271 61.702 14.5022C62.0512 14.6062 62.3643 14.8059 62.6057 15.0788C62.8471 15.3516 63.0072 15.6867 63.0678 16.0459C63.1343 16.3598 63.1182 16.6855 63.0212 16.9913C62.9242 17.2971 62.7495 17.5726 62.5142 17.7907C60.6641 19.6623 58.8122 21.5322 56.9126 23.361C56.5667 23.6971 56.0312 23.8618 55.7594 24.0002Z" fill="white"/>
<path d="M29.1196 36.3974C29.4034 34.9974 30.0301 33.6898 30.9434 32.5916C32.9089 30.1714 35.4692 28.9258 38.5946 28.8748C39.789 28.855 40.6638 29.6474 40.7034 30.7529C40.7446 31.9062 39.9323 32.7547 38.7148 32.8222C35.7839 32.987 34.0309 34.305 33.0111 37.1322C32.6437 38.1536 31.731 38.75 30.7919 38.5836C29.7836 38.4057 29.0817 37.5506 29.1196 36.3974Z" fill="white"/>
</svg>
