<svg width="24" height="25" viewBox="0 0 24 25" fill="none" xmlns="http://www.w3.org/2000/svg">
<g opacity="0.8">
<path d="M15.0002 19C12.4902 19 10.3202 17.58 9.24019 15.5H14.3802C14.7602 15.5 15.1102 15.29 15.2702 14.95C15.6002 14.29 15.1202 13.5 14.3802 13.5H8.5802C8.5302 13.17 8.5002 12.84 8.5002 12.5C8.5002 12.16 8.5302 11.83 8.5802 11.5H14.3802C14.7602 11.5 15.1102 11.29 15.2702 10.95C15.6102 10.28 15.1302 9.5 14.3802 9.5H9.24019C10.3202 7.42 12.5002 6 15.0002 6C16.2502 6 17.4202 6.36 18.4202 6.97C18.9202 7.28 19.5702 7.23 19.9902 6.81C20.5702 6.23 20.4402 5.28 19.7402 4.85C18.3602 4 16.7302 3.5 15.0002 3.5C11.0802 3.5 7.7602 6.01 6.5202 9.5H3.6202C3.2402 9.5 2.8902 9.71 2.7202 10.05C2.3902 10.72 2.8702 11.5 3.6202 11.5H6.0602C6.0202 11.83 6.0002 12.16 6.0002 12.5C6.0002 12.84 6.0202 13.17 6.0602 13.5H3.6202C3.2402 13.5 2.8902 13.71 2.7302 14.05C2.3902 14.72 2.8702 15.5 3.6202 15.5H6.5202C7.7602 18.99 11.0802 21.5 15.0002 21.5C16.7402 21.5 18.3602 21.01 19.7402 20.15C20.4302 19.72 20.5602 18.76 19.9802 18.18C19.5602 17.76 18.9102 17.71 18.4102 18.03C17.4202 18.65 16.2602 19 15.0002 19Z" fill="white"/>
</g>
</svg>
