<svg width="24" height="25" viewBox="0 0 24 25" fill="none" xmlns="http://www.w3.org/2000/svg">
<path d="M20.8587 23.1021C20.4707 22.9534 20.1959 22.6597 19.9119 22.3741C18.7238 21.1817 17.5337 19.9909 16.3417 18.8017C16.2846 18.7446 16.2339 18.6816 16.1757 18.6153C13.8488 20.232 11.3219 20.7471 8.59025 20.0493C6.4406 19.5007 4.72854 18.2822 3.46321 16.4586C0.932563 12.813 1.48547 7.75169 4.80344 4.7258C8.10848 1.70799 13.2328 1.6056 16.6618 4.50486C18.3926 5.97685 19.5037 8.04812 19.7728 10.3042C20.0418 12.5603 19.4491 14.8348 18.1131 16.6726C18.3868 16.942 18.6643 17.2168 18.9397 17.4917C19.9212 18.4717 20.9026 19.4522 21.8837 20.433C22.1645 20.7126 22.4517 20.9848 22.5967 21.3669V22.1321C22.5178 22.356 22.3897 22.5594 22.2218 22.7272C22.0539 22.8951 21.8506 23.0232 21.6266 23.1021H20.8587ZM19.1407 11.3795C19.1531 6.83342 15.4515 3.11289 10.9 3.09726C6.34845 3.08164 2.61715 6.78168 2.59236 11.3391C2.56972 15.9073 6.26007 19.6305 10.8719 19.6435C15.4665 19.6564 19.1375 15.9348 19.1407 11.3795ZM17.8948 19.3783C18.0317 19.5114 18.1729 19.6478 18.3108 19.7825C19.1059 20.5768 19.8999 21.3719 20.6927 22.1677C20.9083 22.3832 21.16 22.4581 21.4472 22.3611C21.5671 22.3236 21.6735 22.2519 21.7533 22.1548C21.8331 22.0578 21.8829 21.9396 21.8966 21.8147C21.936 21.5614 21.8277 21.3599 21.6514 21.1836C20.7508 20.2855 19.8512 19.3873 18.9527 18.4892C18.9209 18.4574 18.8848 18.4299 18.861 18.4099L17.8948 19.3783ZM17.3559 18.8023L18.299 17.8646L17.6938 17.2583L16.7588 18.1982L17.3559 18.8023Z" fill="white"/>
<path d="M11.3603 8.87561C11.7541 8.58929 12.1624 8.52114 12.6075 8.70744C12.6378 8.71751 12.67 8.72049 12.7017 8.71616C12.7333 8.71182 12.7635 8.70029 12.79 8.68243C13.4152 8.14292 14.036 7.59654 14.6936 7.02077L14.5061 7.00514C14.2698 6.98264 14.1091 6.8101 14.1179 6.59004C14.1205 6.48718 14.1637 6.38953 14.2381 6.31843C14.3125 6.24733 14.412 6.20856 14.5148 6.21057C14.9131 6.2037 15.3113 6.20432 15.7101 6.21057C15.9602 6.21432 16.119 6.36874 16.124 6.6213C16.1319 7.01223 16.1319 7.40295 16.124 7.79346C16.1267 7.90047 16.0875 8.0043 16.0148 8.08279C15.942 8.16129 15.8414 8.20822 15.7345 8.21357C15.5138 8.22294 15.3407 8.0479 15.3213 7.79471C15.3169 7.7322 15.3157 7.67468 15.3107 7.57841C15.2331 7.63468 15.1769 7.66968 15.1275 7.71282C14.5461 8.22232 13.9678 8.7362 13.3821 9.24069C13.277 9.33072 13.257 9.40699 13.2864 9.53952C13.3921 10.0253 13.2526 10.4416 12.8625 10.7498C12.4725 11.058 12.0442 11.0974 11.6072 10.8905C11.1596 10.6792 10.9139 10.3085 10.9289 9.80709C10.9352 9.61266 10.8696 9.51951 10.7095 9.42699C10.155 9.10879 9.60737 8.77683 9.06223 8.44237C8.94408 8.37048 8.85906 8.35298 8.7284 8.43362C8.32017 8.68368 7.89882 8.65743 7.46871 8.42737C6.83731 8.91666 6.20382 9.40845 5.56824 9.90274C5.33985 10.0803 5.11188 10.2578 4.88433 10.4354C4.588 10.6654 4.35107 10.6717 4.18978 10.4547C4.03724 10.2497 4.10601 10.0171 4.38233 9.80146C5.18377 9.17631 5.98335 8.55115 6.7898 7.936C6.92358 7.8341 6.96734 7.7397 6.93858 7.56966C6.82168 6.86073 7.32868 6.24433 8.06386 6.18744C8.73215 6.13555 9.34293 6.71445 9.32105 7.40837C9.3148 7.60404 9.37544 7.69719 9.5336 7.78909C10.1475 8.14418 10.7539 8.51302 11.3603 8.87561ZM12.1324 10.1984C12.2347 10.1948 12.3318 10.1523 12.404 10.0796C12.4761 10.0069 12.5178 9.90946 12.5206 9.80709C12.5172 9.70072 12.4726 9.59984 12.3962 9.52577C12.3197 9.45169 12.2175 9.41022 12.1111 9.41011C12.0089 9.41571 11.9126 9.45949 11.8411 9.53279C11.7697 9.60608 11.7284 9.70353 11.7254 9.80584C11.726 9.85843 11.7371 9.91036 11.758 9.95864C11.7788 10.0069 11.8091 10.0506 11.8469 10.0871C11.8848 10.1236 11.9295 10.1523 11.9785 10.1714C12.0275 10.1905 12.0798 10.1997 12.1324 10.1984ZM8.51085 7.41649C8.51234 7.36389 8.50339 7.3115 8.48452 7.26237C8.46565 7.21324 8.43722 7.16834 8.40089 7.13026C8.36456 7.09219 8.32104 7.06169 8.27285 7.04054C8.22465 7.01938 8.17275 7.00799 8.12012 7.00702C8.01783 7.0088 7.92025 7.0503 7.84802 7.12276C7.7758 7.19522 7.7346 7.29294 7.73316 7.39524C7.73071 7.44781 7.73893 7.50034 7.75731 7.54966C7.7757 7.59897 7.80388 7.64406 7.84015 7.6822C7.87642 7.72034 7.92003 7.75074 7.96836 7.77158C8.0167 7.79242 8.06874 7.80327 8.12138 7.80347C8.22374 7.80187 8.32151 7.76067 8.39413 7.68851C8.46676 7.61635 8.50859 7.51885 8.51085 7.41649Z" fill="white"/>
<path d="M12.1335 10.1987C12.081 10.2 12.0287 10.1908 11.9797 10.1717C11.9307 10.1525 11.8859 10.1239 11.8481 10.0874C11.8102 10.0509 11.78 10.0072 11.7591 9.95893C11.7383 9.91065 11.7272 9.85871 11.7266 9.80612C11.7295 9.70382 11.7708 9.60636 11.8423 9.53307C11.9137 9.45978 12.0101 9.416 12.1123 9.4104C12.2187 9.41051 12.3209 9.45198 12.3973 9.52606C12.4737 9.60013 12.5184 9.70101 12.5218 9.80737C12.519 9.90974 12.4773 10.0072 12.4051 10.0799C12.333 10.1526 12.2359 10.1951 12.1335 10.1987Z" fill="white"/>
<path d="M8.51542 7.41582C8.51317 7.51818 8.47133 7.61568 8.39871 7.68784C8.32608 7.76 8.22831 7.8012 8.12595 7.80279C8.07332 7.8026 8.02127 7.79175 7.97294 7.77091C7.92461 7.75007 7.88099 7.71967 7.84472 7.68153C7.80845 7.64339 7.78027 7.5983 7.76189 7.54899C7.7435 7.49967 7.73528 7.44714 7.73773 7.39457C7.73917 7.29227 7.78037 7.19455 7.85259 7.12209C7.92482 7.04963 8.0224 7.00812 8.1247 7.00635C8.17732 7.00732 8.22922 7.01871 8.27742 7.03986C8.32561 7.06102 8.36913 7.09152 8.40546 7.12959C8.4418 7.16767 8.47022 7.21257 8.48909 7.2617C8.50797 7.31083 8.51691 7.36321 8.51542 7.41582Z" fill="white"/>
<path fill-rule="evenodd" clip-rule="evenodd" d="M16.5228 8.83191C16.7726 8.83191 16.9752 9.03569 16.9752 9.28706V16.1613H4.94502C4.83009 16.1613 4.72516 16.1182 4.64537 16.0471C4.5138 15.9675 4.42578 15.8225 4.42578 15.6568V12.2431C4.42578 11.9918 4.62831 11.788 4.87813 11.788C5.12796 11.788 5.33048 11.9918 5.33048 12.2431V15.251H6.14664V10.9513C6.14664 10.6999 6.34916 10.4961 6.59899 10.4961C6.84881 10.4961 7.05134 10.6999 7.05134 10.9513V15.251H7.80061L7.80061 10.0003C7.80061 9.74892 8.00313 9.54514 8.25296 9.54514C8.50278 9.54514 8.70531 9.74892 8.70531 10.0003L8.70531 15.251H9.45458V10.7135C9.45458 10.4622 9.6571 10.2584 9.90693 10.2584C10.1568 10.2584 10.3593 10.4622 10.3593 10.7135V15.251H11.1086V12.2431C11.1086 11.9918 11.3111 11.788 11.561 11.788C11.8108 11.788 12.0133 11.9918 12.0133 12.2431V15.251H12.7628V12.2431C12.7628 11.9918 12.9653 11.788 13.2152 11.788C13.465 11.788 13.6675 11.9918 13.6675 12.2431V15.251H14.4165V10.9513C14.4165 10.6999 14.619 10.4961 14.8688 10.4961C15.1187 10.4961 15.3212 10.6999 15.3212 10.9513V15.251H16.0705V9.28706C16.0705 9.03569 16.273 8.83191 16.5228 8.83191Z" fill="white"/>
<path d="M19.0676 11.4556C19.0676 16.0138 15.3957 19.7052 10.871 19.7052C6.34634 19.7052 2.67447 16.0138 2.67447 11.4556C2.67447 6.89728 6.34634 3.20596 10.871 3.20596C15.3957 3.20596 19.0676 6.89729 19.0676 11.4556Z" stroke="white" stroke-width="0.737611"/>
</svg>
