<svg width="24" height="25" viewBox="0 0 24 25" fill="none" xmlns="http://www.w3.org/2000/svg">
<g opacity="0.8">
<path d="M12.3954 15.6641C12.3214 15.7326 12.2258 15.7731 12.1251 15.7786L12.1222 15.7787L12.1222 15.7786C11.6895 15.7545 11.2627 15.8888 10.9217 16.1563L10.9217 16.1564C10.5751 16.4281 10.3743 16.7895 10.2827 17.2146L10.2783 17.2354H10.2571H4.55306H4.52591L4.52684 17.2082C4.66326 13.2212 8.06936 9.87103 12.3029 10.0404C16.3038 10.1998 19.3587 13.4893 19.4633 17.2214L19.464 17.2484H19.437H19.2287H19.2243H19.2199H19.2156H19.2112H19.2068H19.2024H19.198H19.1936H19.1892H19.1849H19.1805H19.1761H19.1717H19.1673H19.1629H19.1586H19.1542H19.1498H19.1454H19.141H19.1366H19.1322H19.1279H19.1235H19.1191H19.1147H19.1103H19.1059H19.1015H19.0972H19.0928H19.0884H19.084H19.0796H19.0752H19.0708H19.0665H19.0621H19.0577H19.0533H19.0489H19.0445H19.0401H19.0358H19.0314H19.027H19.0226H19.0182H19.0138H19.0095H19.0051H19.0007H18.9963H18.9919H18.9875H18.9831H18.9788H18.9744H18.97H18.9656H18.9612H18.9568H18.9524H18.9481H18.9437H18.9393H18.9349H18.9305H18.9261H18.9217H18.9174H18.913H18.9086H18.9042H18.8998H18.8954H18.8911H18.8867H18.8823H18.8779H18.8735H18.8691H18.8647H18.8604H18.856H18.8516H18.8472H18.8428H18.8384H18.834H18.8297H18.8253H18.8209H18.8165H18.8121H18.8077H18.8033H18.799H18.7946H18.7902H18.7858H18.7814H18.777H18.7726H18.7683H18.7639H18.7595H18.7551H18.7507H18.7463H18.742H18.7376H18.7332H18.7288H18.7244H18.72H18.7156H18.7113H18.7069H18.7025H18.6981H18.6937H18.6893H18.6849H18.6806H18.6762H18.6718H18.6674H18.663H18.6586H18.6542H18.6499H18.6455H18.6411H18.6367H18.6323H18.6279H18.6236H18.6192H18.6148H18.6104H18.606H18.6016H18.5972H18.5929H18.5885H18.5841H18.5797H18.5753H18.5709H18.5665H18.5622H18.5578H18.5534H18.549H18.5446H18.5402H18.5358H18.5315H18.5271H18.5227H18.5183H18.5139H18.5095H18.5051H18.5008H18.4964H18.492H18.4876H18.4832H18.4788H18.4745H18.4701H18.4657H18.4613H18.4569H18.4525H18.4481H18.4438H18.4394H18.435H18.4306H18.4262H18.4218H18.4174H18.4131H18.4087H18.4043H18.3999H18.3955H18.3911H18.3867H18.3824H18.378H18.3736H18.3692H18.3648H18.3604H18.356H18.3517H18.3473H18.3429H18.3385H18.3341H18.3297H18.3254H18.321H18.3166H18.3122H18.3078H18.3034H18.299H18.2947H18.2903H18.2859H18.2815H18.2771H18.2727H18.2683H18.264H18.2596H18.2552H18.2508H18.2464H18.242H18.2376H18.2333H18.2289H18.2245H18.2201H18.2157H18.2113H18.2069H18.2026H18.1982H18.1938H18.1894H18.185H18.1806H18.1763H18.1719H18.1675H18.1631H18.1587H18.1543H18.1499H18.1456H18.1412H18.1368H18.1324H18.128H18.1236H18.1192H18.1149H18.1105H18.1061H18.1017H18.0973H18.0929H18.0885H18.0842H18.0798H18.0754H18.071H18.0666H18.0622H18.0579H18.0535H18.0491H18.0447H18.0403H18.0359H18.0315H18.0272H18.0228H18.0184H18.014H18.0096H18.0052H18.0008H17.9965H17.9921H17.9877H17.9833H17.9789H17.9745H17.9701H17.9658H17.9614H17.957H17.9526H17.9482H17.9438H17.9394H17.9351H17.9307H17.9263H17.9219H17.9175H17.9131H17.9088H17.9044H17.9H17.8956H17.8912H17.8868H17.8824H17.8781H17.8737H17.8693H17.8649H17.8605H17.8561H17.8517H17.8474H17.843H17.8386H17.8342H17.8298H17.8254H17.821H17.8167H17.8123H17.8079H17.8035H17.7991H17.7947H17.7904H17.786H17.7816H17.7772H17.7728H17.7684H17.764H17.7597H17.7553H17.7509H17.7465H17.7421H17.7377H17.7333H17.729H17.7246H17.7202H17.7158H17.7114H17.707H17.7026H17.6983H17.6939H17.6895H17.6851H17.6807H17.6763H17.6719H17.6676H17.6632H17.6588H17.6544H17.65H17.6456H17.6413H17.6369H17.6325H17.6281H17.6237H17.6193H17.6149H17.6106H17.6062H17.6018H17.5974H17.593H17.5886H17.5842H17.5799H17.5755H17.5711H17.5667H17.5623H17.5579H17.5535H17.5492H17.5448H17.5404H17.536H17.5316H17.5272H17.5229H17.5185H17.5141H17.5097H17.5053H17.5009H17.4965H17.4922H17.4878H17.4834H17.479H17.4746H17.4702H17.4658H17.4615H17.4571H17.4527H17.4483H17.4439H17.4395H17.4351H17.4308H17.4264H17.422H17.4176H17.4132H17.4088H17.4044H17.4001H17.3957H17.3913H17.3869H17.3825H17.3781H17.3738H17.3694H17.365H17.3606H17.3562H17.3518H17.3474H17.3431H17.3387H17.3343H17.3299H17.3255H17.3211H17.3167H17.3124H17.308H17.3036H17.2992H17.2948H17.2904H17.286H17.2817H17.2773H17.2729H17.2685H17.2641H17.2597H17.2553H17.251H17.2466H17.2422H17.2378H17.2334H17.229H17.2247H17.2203H17.2159H17.2115H17.2071H17.2027H17.1983H17.194H17.1896H17.1852H17.1808H17.1764H17.172H17.1676H17.1633H17.1589H17.1545H17.1501H17.1457H17.1413H17.1369H17.1326H17.1282H17.1238H17.1194H17.115H17.1106H17.1062H17.1019H17.0975H17.0931H17.0887H17.0843H17.0799H17.0756H17.0712H17.0668H17.0624H17.058H17.0536H17.0492H17.0449H17.0405H17.0361H17.0317H17.0273H17.0229H17.0185H17.0142H17.0098H17.0054H17.001H16.9966H16.9922H16.9878L16.9835 17.2484L16.9835 17.2484M12.3954 15.6641L16.9736 17.8055C16.7829 17.7982 16.6522 17.6758 16.6553 17.5086C16.6585 17.3414 16.7887 17.2227 16.9835 17.2221V17.2484M12.3954 15.6641C13.3995 14.7853 14.401 13.904 15.3999 13.02L15.4002 13.0197C15.5168 12.9124 15.6636 12.8438 15.8207 12.8232C15.9777 12.8027 16.1372 12.8312 16.2775 12.9048C16.4266 12.9845 16.5397 13.0882 16.6103 13.212C16.6808 13.3356 16.7099 13.4807 16.6887 13.6451C16.6598 13.8309 16.5801 14.0051 16.4583 14.1484C15.8331 14.8733 15.1997 15.5905 14.5661 16.3079C14.3554 16.5465 14.1446 16.7851 13.9342 17.0241L13.9539 17.0414L13.9343 17.024C13.9135 17.0473 13.8926 17.0717 13.8681 17.1004C13.8431 17.1295 13.8144 17.1632 13.7779 17.2048L13.7398 17.2484H13.7976H15.4986C15.6193 17.2484 15.7071 17.2731 15.7642 17.3171C15.8202 17.3602 15.8502 17.4244 15.8505 17.5123C15.8507 17.6002 15.8208 17.6654 15.7649 17.7094C15.708 17.7542 15.6207 17.7797 15.5012 17.7797H5.93323C5.63402 17.7797 5.33469 17.7788 5.03531 17.7779C4.28659 17.7755 3.53753 17.7732 2.78913 17.7855L2.78911 17.7855C2.60928 17.7885 2.45664 17.7634 2.33003 17.6983C2.20534 17.6341 2.10374 17.53 2.02624 17.3708L12.3954 15.6641ZM16.9835 17.2484C16.8914 17.2486 16.8167 17.2768 16.7649 17.3225C16.7133 17.3681 16.683 17.4325 16.6816 17.5091C16.6788 17.6589 16.7948 17.7721 16.9741 17.7792M16.9835 17.2484L16.9741 17.7792M16.9741 17.7792H16.9741H16.9744H16.9746H16.9749H16.9752H16.9754H16.9757H16.976H16.9762H16.9765H16.9768H16.977H16.9773H16.9776H16.9778H16.9781H16.9783H16.9786H16.9789H16.9791H16.9794H16.9797H16.9799H16.9802H16.9805H16.9807H16.981H16.9813H16.9815H16.9818H16.9821H16.9823H16.9826H16.9829H16.9831H16.9834H16.9837H16.9839H16.9842H16.9845H16.9847H16.985H16.9853H16.9855H16.9858H16.9861H16.9863H16.9866H16.9869H16.9871H16.9874H16.9877H16.9879H16.9882H16.9885H16.9887H16.989H16.9893H16.9895H16.9898H16.99H16.9903H16.9906H16.9908H16.9911H16.9914H16.9916H16.9919H16.9922H16.9924H16.9927H16.993H16.9932H16.9935H16.9938H16.994H16.9943H16.9946H16.9948H16.9951H16.9954H16.9956H16.9959H16.9962H16.9964H16.9967H16.997H16.9972H16.9975H16.9978H16.998H16.9983H16.9986H16.9988H16.9991H16.9994H16.9996H16.9999H17.0002H17.0004H17.0007H17.001H17.0012H17.0015H17.0018H17.002H17.0023H17.0026H17.0028H17.0031H17.0034H17.0036H17.0039H17.0042H17.0044H17.0047H17.005H17.0052H17.0055H17.0058H17.006H17.0063H17.0066H17.0068H17.0071H17.0074H17.0076H17.0079H17.0082H17.0084H17.0087H17.009H17.0092H17.0095H17.0098H17.01H17.0103H17.0106H17.0108H17.0111H17.0114H17.0116H17.0119H17.0122H17.0124H17.0127H17.013H17.0132H17.0135H17.0138H17.014H17.0143H17.0146H17.0148H17.0151H17.0154H17.0156H17.0159H17.0162H17.0164H17.0167H17.017H17.0172H17.0175H17.0178H17.018H17.0183H17.0186H17.0188H17.0191H17.0194H17.0196H17.0199H17.0202H17.0204H17.0207H17.021H17.0212H17.0215H17.0218H17.022H17.0223H17.0226H17.0228H17.0231H17.0234H17.0236H17.0239H17.0242H17.0244H17.0247H17.025H17.0252H17.0255H17.0258H17.026H17.0263H17.0266H17.0268H17.0271H17.0274H17.0276H17.0279H17.0282H17.0284H17.0287H17.029H17.0292H17.0295H17.0298H17.03H17.0303H17.0306H17.0308H17.0311H17.0314H17.0316H17.0319H17.0322H17.0324H17.0327H17.033H17.0332H17.0335H17.0338H17.0341H17.0343H17.0346H17.0349H17.0351H17.0354H17.0357H17.0359H17.0362H17.0365H17.0367H17.037H17.0373H17.0375H17.0378H17.0381H17.0383H17.0386H17.0389H17.0391H17.0394H17.0397H17.0399H17.0402H17.0405H17.0407H17.041H17.0413H17.0415H17.0418H17.0421H17.0423H17.0426H17.0429H17.0431H17.0434H17.0437H17.0439H17.0442H17.0445H17.0447H17.045H17.0453H17.0455H17.0458H17.0461H17.0463H17.0466H17.0469H17.0471H17.0474H17.0477H17.0479H17.0482H17.0485H17.0487H17.049H17.0493H17.0495H17.0498H17.0501H17.0503H17.0506H17.0509H17.0511H17.0514H17.0517H17.0519H17.0522H17.0525H17.0527H17.053H17.0533H17.0535H17.0538H17.0541H17.0543H17.0546H17.0549H17.0551H17.0554H17.0557H17.0559H17.0562H17.0565H17.0567H17.057H17.0573H17.0575H17.0578H17.0581H17.0583H17.0586H17.0589H17.0591H17.0594H17.0597H17.0599H17.0602H17.0605H17.0608H17.061H17.0613H17.0616H17.0618H17.0621H17.0624H17.0626H17.0629H17.0632H17.0634H17.0637H17.064H17.0642H17.0645H17.0648H17.065H17.0653H17.0656H17.0658H17.0661H17.0664H17.0666H17.0669H17.0672H17.0674H17.0677H17.068H17.0682H17.0685H17.0688H17.069H17.0693H17.0696H17.0698H17.0701H17.0704H17.0706H17.0709H17.0712H17.0714H17.0717H17.072H17.0722H17.0725H17.0728H17.073H17.0733H17.0736H17.0738H17.0741H17.0744H17.0746H17.0749H17.0752H17.0754H17.0757H17.076H17.0762H17.0765H17.0768H17.077H17.0773H17.0776H17.0778H17.0781H17.0784H17.0786H17.0789H17.0792H17.0794H17.0797H17.08H17.0802H17.0805H17.0808H17.081H17.0813H17.0816H17.0818H17.0821H17.0824H17.0826H17.0829H17.0832H17.0834H17.0837H17.084H17.0842H17.0845H17.0848H17.085H17.0853H17.0856H17.0858H17.0861H17.0864H17.0866H17.0869H17.0871H17.0874H17.0877H17.0879H17.0882H17.0885H17.0887H17.089H17.0893H17.0895H17.0898H17.0901H17.0903H17.0906H17.0909H17.0911H17.0914H17.0917H17.0919H17.0922H17.0925H17.0927H17.093H17.0933H17.0935H17.0938H17.0941H17.0943H17.0946H17.0949H17.0951H17.0954H17.0957H17.0959H17.0962H17.0965H17.0967H17.097H17.0973H17.0975H17.0978H17.0981H17.0983H17.0986H17.0989H17.0991H17.0994H17.0997H17.0999H17.1002H17.1005H17.1007H17.101H17.1013H17.1015H17.1018H17.1021H17.1023H17.1026H17.1028H17.1031H17.1034H17.1036H17.1039H17.1042H17.1044H17.1047H17.105H17.1052H17.1055H17.1058H17.106H17.1063H17.1066H17.1068H17.1071H17.1074H17.1076H17.1079H17.1082H17.1084H17.1087H17.109H17.1092H17.1095H17.1098H17.11C17.4885 17.7792 17.867 17.7785 18.2456 17.7778C19.234 17.7759 20.2225 17.774 21.2113 17.7849C21.3914 17.787 21.5438 17.7615 21.6702 17.6964C21.7947 17.6323 21.896 17.5287 21.9738 17.3703L21.9732 16.7543C21.9696 16.7386 21.9654 16.7225 21.9612 16.706C21.9513 16.6669 21.9409 16.6261 21.935 16.5859C21.935 16.5859 21.935 16.5859 21.935 16.5859L21.9609 16.582C21.9437 16.467 21.9284 16.3518 21.913 16.2367C21.8818 16.0033 21.8507 15.7703 21.8047 15.5404L16.9741 17.7792ZM16.1343 13.6846C16.1519 13.648 16.1592 13.6073 16.1552 13.5669C16.1513 13.5264 16.1363 13.4878 16.1119 13.4553C16.0875 13.4228 16.0547 13.3976 16.0169 13.3825C15.9791 13.3674 15.938 13.363 15.8979 13.3698L15.8979 13.3697L15.8952 13.3704C15.8113 13.3937 15.7347 13.4379 15.6724 13.4988C15.0174 14.0723 14.3643 14.6475 13.7131 15.2244C13.5259 15.3896 13.3394 15.5555 13.177 15.6999C13.0972 15.7709 13.0232 15.8367 12.9578 15.8947L12.9372 15.913L12.9565 15.9327L13.5508 16.5413L13.5291 16.6025L13.5765 16.6244C13.589 16.603 13.603 16.5824 13.6183 16.5629C14.4302 15.6417 15.2423 14.7218 16.0545 13.8034C16.0869 13.768 16.1138 13.728 16.1343 13.6846ZM16.1343 13.6846C16.1342 13.6846 16.1342 13.6846 16.1342 13.6847L16.1106 13.6733L16.1343 13.6844C16.1343 13.6845 16.1343 13.6845 16.1343 13.6846ZM12.9752 15.9144L12.994 15.896L12.9949 15.8969C12.9882 15.9028 12.9817 15.9086 12.9752 15.9144ZM12.9752 15.9144L12.9926 15.934C12.993 15.9337 12.9933 15.9334 12.9936 15.9332L12.9752 15.9144ZM2.18196 15.7201C2.92706 12.1028 5.01795 9.59018 8.42903 8.19614L8.42904 8.19613C9.85429 7.61305 11.3568 7.43529 12.8923 7.5678L12.8945 7.54166L2.18196 15.7201ZM5.19613 10.9819L5.1769 10.9626L5.15831 10.9825C3.52279 12.7397 2.6683 14.8108 2.56491 17.2069L2.56373 17.2343H2.59113H3.95464H3.97956L3.98084 17.2094C4.08469 15.1942 4.8218 13.4569 6.17329 12.0005L6.19044 11.9821L6.17267 11.9642L5.19613 10.9819ZM20.0223 17.2084L20.0236 17.2333H20.0485H21.413H21.4405L21.4392 17.2058C21.3296 14.804 20.4762 12.7299 18.8594 11.0012L18.8408 10.9814L18.8216 11.0006L17.8425 11.9792L17.8246 11.9971L17.8418 12.0156C19.186 13.4668 19.9169 15.201 20.0223 17.2084ZM18.3921 10.5747L18.4117 10.555L18.391 10.5366C16.6553 8.99093 14.6375 8.16982 12.3122 8.08209L12.2849 8.08106V8.10831V9.4739V9.49917L12.3102 9.50012C13.2444 9.53512 14.1651 9.7342 15.0303 10.0883C15.8893 10.4419 16.6816 10.9395 17.3732 11.5595L17.3917 11.5761L17.4093 11.5585L18.3921 10.5747ZM11.7156 8.10357L11.7155 8.07622L11.6882 8.07741C9.35593 8.17905 7.33627 8.99433 5.63031 10.5231L5.60974 10.5415L5.62921 10.5611L6.60679 11.5449L6.62424 11.5625L6.64279 11.5461C8.07474 10.2798 9.7612 9.58991 11.6932 9.49386L11.7182 9.49261L11.7182 9.4676L11.7156 8.10357ZM13.1122 17.2432H13.1455L13.1377 17.2108C13.0012 16.6405 12.4997 16.2948 11.8899 16.3293C11.6433 16.3432 11.4019 16.4523 11.2154 16.613C11.029 16.7736 10.8953 16.9878 10.8675 17.2137L10.8639 17.2432H10.8935H13.1122Z" fill="white" stroke="white" stroke-width="0.0524779"/>
</g>
</svg>
