<svg width="24" height="25" viewBox="0 0 24 25" fill="none" xmlns="http://www.w3.org/2000/svg">
<path d="M23.2487 10.0249C23.2051 10.1969 23.1661 10.369 23.1173 10.5411C22.9166 11.2309 22.499 11.8377 21.9264 12.2717C21.3538 12.7056 20.6567 12.9436 19.9383 12.9503C19.5941 12.9503 19.2546 12.9503 18.8915 12.9503V13.1844C18.8915 14.374 18.8915 15.5643 18.8955 16.754C18.8978 16.8735 18.9293 16.9907 18.9872 17.0953C20.224 19.2905 18.8347 22.064 16.3417 22.3651C16.1633 22.383 15.9841 22.3903 15.8048 22.3869C13.4251 22.3869 11.0451 22.3869 8.66497 22.3869C6.83225 22.3869 5.41828 21.2317 5.07583 19.4374C4.91866 18.6131 5.07984 17.8312 5.48482 17.0953C5.53652 17.0114 5.5674 16.9164 5.57488 16.8182C5.58119 15.5781 5.57889 14.3379 5.57832 13.0977C5.57832 13.0564 5.57201 13.0146 5.56685 12.9497H4.6829C2.89952 12.9469 1.58019 11.8484 1.25724 10.1006C1.24872 10.0739 1.23676 10.0485 1.22168 10.0249V8.26098C3.04923 8.26442 4.87697 8.26691 6.70491 8.26844C6.75981 8.26627 6.81178 8.24306 6.85003 8.20362C6.98197 8.04587 7.10415 7.87952 7.24182 7.7017C7.18044 7.68392 7.13512 7.66843 7.08866 7.65753C6.07622 7.42521 5.28291 6.57683 5.18539 5.55177C5.12803 4.96898 5.15499 4.37815 5.14466 3.79076C5.14466 3.65023 5.14466 3.50911 5.14466 3.36169H6.4508V3.63072C6.4508 4.18254 6.43875 4.73494 6.45997 5.28619C6.48407 5.9338 6.98656 6.40647 7.63245 6.41737C7.95483 6.4231 8.27777 6.42712 8.60015 6.41737C8.71918 6.41276 8.83564 6.38139 8.94088 6.32559C10.9072 5.25865 12.9304 5.13991 14.9639 6.06115C15.5146 6.32201 16.1199 6.44692 16.7289 6.4254C17.5274 6.39786 18.0127 5.93667 18.0184 5.13762C18.0224 4.62136 18.0184 4.10511 18.0184 3.58885C18.0184 3.5137 18.0259 3.43799 18.0299 3.36514H19.3119C19.3119 4.0638 19.3584 4.74756 19.301 5.42271C19.2069 6.53668 18.498 7.3472 17.4654 7.63459L17.2245 7.70055C17.3325 7.82286 17.4327 7.95179 17.5245 8.0866C17.6186 8.24377 17.7413 8.27876 17.9152 8.27761C19.2345 8.27073 20.5538 8.27475 21.8731 8.2736C22.332 8.2736 22.7909 8.26671 23.2498 8.26327L23.2487 10.0249ZM17.5698 15.7163C17.5756 15.6377 17.5813 15.5953 17.5813 15.5528C17.5813 14.3844 17.5893 13.2153 17.575 12.0469C17.575 11.6889 17.5379 11.3319 17.4643 10.9817C16.8259 8.12675 14.1809 6.35541 11.2927 6.83496C8.84967 7.24108 6.94067 9.42772 6.89535 11.9C6.87298 13.1184 6.88847 14.3373 6.88789 15.5563C6.89125 15.6088 6.89757 15.6611 6.90682 15.7129C7.57222 15.3475 8.27032 15.2867 8.98734 15.2895C11.1166 15.2976 13.2461 15.2976 15.3757 15.2895C16.1278 15.2861 16.8649 15.3257 17.5704 15.718L17.5698 15.7163ZM12.2564 16.5991C11.0168 16.5991 9.77664 16.5939 8.53705 16.5991C7.73914 16.6037 7.11619 16.9657 6.68827 17.6224C6.21619 18.3458 6.18406 19.1242 6.58789 19.8854C6.99172 20.6466 7.66228 21.0739 8.5382 21.0791C11.0048 21.0923 13.4685 21.0848 15.9339 21.0791C16.1196 21.0772 16.3042 21.0516 16.4834 21.0028C17.0159 20.8634 17.4781 20.5322 17.7814 20.0729C18.0846 19.6135 18.2074 19.0583 18.1262 18.5139C17.9771 17.4429 17.0232 16.5871 15.9126 16.5945C14.6937 16.6054 13.4753 16.5991 12.257 16.5991H12.2564ZM5.53358 11.682C5.70566 10.9415 5.85997 10.2692 6.01599 9.59292H2.53297C2.45611 10.4367 3.12896 11.3711 4.01693 11.561C4.52057 11.6683 5.05174 11.6453 5.53358 11.682ZM21.9471 9.59694H18.4188C18.5209 9.94111 18.635 10.2658 18.7113 10.5985C18.7876 10.9312 18.8312 11.2868 18.8874 11.6212C19.3291 11.6212 19.7743 11.6545 20.2125 11.6144C21.1802 11.5249 21.9712 10.5922 21.9471 9.59694Z" fill="white"/>
<path d="M8.19531 18.2072H9.46129V19.4691H8.19531V18.2072Z" fill="white"/>
<path d="M16.2826 18.2161V19.4746H15.0068V18.2161H16.2826Z" fill="white"/>
</svg>
