<svg width="24" height="25" viewBox="0 0 24 25" fill="none" xmlns="http://www.w3.org/2000/svg">
<g opacity="0.8">
<path d="M10.9509 2H12.3524C12.6094 2.03284 12.8671 2.06229 13.1236 2.09909C14.9248 2.359 16.5743 3.0051 18.0358 4.0906C20.4447 5.88184 21.8918 8.26161 22.3773 11.2299C22.4265 11.5357 22.4611 11.8432 22.5024 12.1501V13.594C22.4702 13.8522 22.4418 14.1116 22.4045 14.3692C22.097 16.4779 21.272 18.3567 19.8671 19.9632C17.8286 22.2945 15.2504 23.5515 12.1661 23.731C10.4311 23.8318 8.74817 23.5329 7.17739 22.782C3.25383 20.906 1.13095 17.7656 0.778744 13.4445C0.654169 11.919 0.927669 10.4315 1.47807 8.99887C1.50981 8.89398 1.53255 8.78657 1.54602 8.67781C1.61708 8.58275 1.68141 8.48285 1.73854 8.37883C2.4052 6.90374 3.396 5.59802 4.63718 4.55889C6.07886 3.34881 7.72099 2.55549 9.57263 2.20838C10.0279 2.12288 10.4911 2.06852 10.9509 2ZM8.49675 3.26444C8.71533 3.35447 8.87898 3.4547 9.05565 3.49094C9.65871 3.60419 10.2669 3.69592 10.8722 3.80011C11.2119 3.85674 11.3252 4.0504 11.2238 4.37882C11.1276 4.68177 11.0171 4.98018 10.9243 5.28483C10.9007 5.37375 10.8537 5.45476 10.7883 5.51947C10.7229 5.58418 10.6414 5.63024 10.5523 5.65289C10.3282 5.71582 10.1074 5.79009 9.89087 5.87543C9.77705 5.9211 9.67877 5.99854 9.60774 6.09853C9.31273 6.56399 9.04149 7.04417 8.74704 7.5102C8.66896 7.63423 8.56457 7.73958 8.44126 7.8188C7.93164 8.13817 7.41805 8.44904 6.8954 8.74576C6.73565 8.83311 6.56182 8.89175 6.38181 8.91903C5.76799 9.01756 5.15077 9.09344 4.53696 9.1897C4.50239 9.20237 4.47143 9.22328 4.44677 9.25061C4.4221 9.27794 4.40447 9.31087 4.39539 9.34655C4.35349 9.64383 4.38917 9.9128 4.6672 10.1104C5.01431 10.3567 5.19268 10.692 5.1202 11.1325C5.12334 11.178 5.13151 11.223 5.14455 11.2667C5.28724 11.1127 5.39143 10.9904 5.50582 10.8783C5.78158 10.6093 6.03583 10.6518 6.21193 10.9994C6.38181 11.333 6.55168 11.6671 6.70966 12.0057C6.72733 12.0545 6.76102 12.0959 6.80523 12.1232C6.84945 12.1504 6.90159 12.1619 6.95316 12.1557C7.63266 12.1495 8.31216 12.1591 8.99166 12.1489C9.21816 12.1455 9.36029 12.2322 9.47128 12.4247C9.73628 12.8839 10.0194 13.3307 10.2838 13.7916C10.3106 13.848 10.3545 13.8944 10.4092 13.9244C10.4639 13.9544 10.5266 13.9664 10.5885 13.9587C10.9135 13.949 11.2397 13.9502 11.5647 13.9587C11.8897 13.9672 12.0319 14.1399 11.9735 14.4558C11.8727 15.0045 11.7691 15.5527 11.6451 16.098C11.6053 16.2459 11.5301 16.382 11.426 16.4943C11.2193 16.7271 11.0109 16.9666 10.7646 17.1529C10.2872 17.5147 10.0823 17.9638 10.1831 18.5572C10.2187 18.7661 10.1145 18.9202 9.94636 19.043C9.58679 19.3064 9.23571 19.5816 8.87388 19.8415C8.82703 19.8713 8.78941 19.9136 8.76521 19.9636C8.74101 20.0136 8.73119 20.0693 8.73685 20.1246C8.74364 20.5844 8.74364 21.0444 8.73685 21.5045C8.73288 21.8528 8.51884 22.0051 8.18645 21.9009C7.8835 21.8052 7.58566 21.6937 7.28045 21.6025C7.19187 21.5789 7.11055 21.5336 7.04383 21.4707C6.97711 21.4079 6.92707 21.3294 6.89823 21.2424C6.69721 20.7225 6.48033 20.2084 6.28215 19.6874C6.22921 19.5498 6.20103 19.4039 6.19891 19.2565C6.19155 18.2729 6.19494 17.2894 6.19494 16.3052V16.0838C5.9373 16.0317 5.7091 15.9847 5.4809 15.9394C5.2527 15.8941 5.02394 15.8477 4.7946 15.8069C4.70002 15.7938 4.61045 15.7564 4.53463 15.6983C4.45882 15.6403 4.39933 15.5635 4.36199 15.4757C4.21816 15.1682 4.07376 14.8601 3.90445 14.5697C3.71522 14.2379 3.62521 13.8588 3.64511 13.4774C3.66776 12.6014 3.58169 12.8239 4.13152 12.2531C4.13945 12.2446 4.13945 12.2293 4.14794 12.2033C3.60434 11.8403 3.06187 11.47 2.50978 11.1144C2.3399 11.0114 2.2159 10.8473 2.16323 10.6557C2.09811 10.4343 2.0177 10.218 1.92937 9.9564C0.450318 14.9859 2.90502 20.1959 7.7125 22.2333C12.272 24.1512 17.2646 22.3851 19.7318 18.9309C19.5115 18.7186 19.2918 18.4983 19.063 18.2877C18.9993 18.2313 18.9491 18.1613 18.9162 18.0829C18.8833 18.0045 18.8684 17.9196 18.8728 17.8347C18.8767 17.4808 18.8812 17.1269 18.8728 16.7729C18.8695 16.6475 18.8402 16.5241 18.7867 16.4105C18.4265 15.6744 18.0698 14.9355 17.6848 14.2124C17.4917 13.8505 17.3603 13.4836 17.4277 13.0798C17.5194 12.5272 17.3314 12.1552 16.815 11.923C16.6763 11.8607 16.567 11.829 16.422 11.8664C16.0885 11.957 15.7533 12.0442 15.4152 12.115C15.2997 12.1414 15.1791 12.1343 15.0675 12.0946C14.2465 11.752 13.4282 11.4037 12.6174 11.0385C12.5566 11.008 12.5029 10.9651 12.4598 10.9125C12.4167 10.8599 12.3851 10.7989 12.3671 10.7333C12.234 9.9179 12.127 9.09797 12.0092 8.2803C11.9951 8.20009 12.0015 8.11761 12.0277 8.0405C12.0539 7.9634 12.0992 7.89416 12.1593 7.83919C12.4871 7.51586 12.8037 7.1812 13.1417 6.86977C13.246 6.77911 13.3775 6.72589 13.5154 6.71858C14.2017 6.70385 14.8886 6.70215 15.5749 6.71858C15.7168 6.73507 15.8475 6.80393 15.9413 6.91167C16.0983 7.10298 16.2373 7.30847 16.3563 7.52548C16.4775 7.7333 16.6196 7.8743 16.8829 7.87996C17.0709 7.88449 17.2584 7.93941 17.4458 7.97396C18.4464 8.16025 18.4464 8.16025 19.4169 7.83409C19.6933 7.74066 19.9701 7.6478 20.2833 7.54304L19.1899 6.09796C18.9141 6.28086 18.6802 6.45187 18.4288 6.59683C18.3212 6.66025 18.1706 6.72254 18.0574 6.69989C17.2238 6.51869 16.3926 6.32786 15.5658 6.11042C15.3308 6.0487 15.1128 6.00227 14.8863 6.09457C14.1378 6.40034 13.4113 6.34938 12.6831 6.0085C12.3648 5.85957 12.2714 5.69989 12.4271 5.38222C12.6378 4.95074 12.8603 4.52492 13.067 4.09173C13.1024 4.00267 13.1656 3.92742 13.2472 3.87722C13.3288 3.82701 13.4245 3.80454 13.52 3.81314C13.8739 3.8188 14.2278 3.80464 14.5817 3.8171C14.9079 3.82899 15.1315 3.62118 15.4277 3.49547C13.2125 2.52831 10.3982 2.54983 8.49675 3.26444ZM20.6196 8.20782C20.0007 8.41507 19.3886 8.62515 18.7725 8.82164C18.6397 8.86751 18.4982 8.88299 18.3586 8.86694C17.6791 8.76558 17.0058 8.65516 16.3337 8.52718C16.2002 8.48969 16.0829 8.40904 16.0002 8.29785C15.8184 8.06456 15.6717 7.80351 15.4968 7.56456C15.4709 7.53099 15.4387 7.50286 15.402 7.48177C15.3653 7.46068 15.3247 7.44706 15.2827 7.44168C14.7663 7.43149 14.2499 7.43262 13.7335 7.44168C13.6521 7.44543 13.5746 7.47702 13.5137 7.53115C13.2822 7.74859 13.0568 7.97452 12.8388 8.20555C12.7908 8.26052 12.7662 8.33204 12.7703 8.40487C12.8529 9.04927 12.9401 9.69253 13.0404 10.3347C13.05 10.3975 13.1321 10.4711 13.1978 10.5C13.8501 10.7869 14.5051 11.0681 15.1627 11.3437C15.2464 11.3754 15.3375 11.3819 15.4248 11.3624C15.7888 11.2797 16.1513 11.1895 16.5126 11.0917C16.5937 11.0672 16.6793 11.0619 16.7628 11.0763C16.8462 11.0906 16.9252 11.1242 16.9934 11.1744C17.3025 11.3856 17.6128 11.5963 17.9282 11.7973C18.0048 11.8419 18.0674 11.9068 18.1092 11.9849C18.151 12.063 18.1703 12.1511 18.1649 12.2395C18.1615 12.6144 18.1593 12.9892 18.1649 13.3641C18.1683 13.4684 18.1934 13.5708 18.2386 13.6648C18.5109 14.2237 18.7595 14.7973 19.0766 15.3301C19.4996 16.0413 19.7108 16.7837 19.6106 17.6082C19.6049 17.6362 19.6049 17.6651 19.6106 17.6931C19.6213 17.7537 19.6442 17.8115 19.678 17.863C19.8218 18.0278 19.9752 18.184 20.131 18.3471C21.9486 15.6999 22.4339 11.6444 20.6196 8.20782ZM11.1797 14.692C10.8586 14.692 10.576 14.6852 10.294 14.692C10.1952 14.7001 10.0962 14.6784 10.0099 14.6296C9.9236 14.5809 9.85391 14.5073 9.80989 14.4185C9.53696 13.9479 9.24874 13.4859 8.97637 13.0147C8.95262 12.9651 8.91402 12.9241 8.86593 12.8975C8.81783 12.8708 8.76263 12.8597 8.70797 12.8658C8.04262 12.8726 7.37728 12.8573 6.7125 12.8749C6.42937 12.8822 6.26459 12.7763 6.15361 12.5244C6.03017 12.2441 5.88181 11.9751 5.73175 11.675C5.28554 12.1223 4.86482 12.5402 4.45032 12.9649C4.40842 13.0085 4.39879 13.0917 4.3937 13.1586C4.34953 13.6116 4.40898 14.0419 4.66833 14.4338C4.75887 14.5768 4.83475 14.7285 4.89483 14.8868C4.95428 15.0357 5.05111 15.0985 5.20683 15.1257C5.65134 15.2039 6.09358 15.2956 6.53639 15.3873C6.82745 15.4439 6.91692 15.5572 6.91805 15.8533C6.91805 16.5113 6.95542 17.1721 6.91012 17.8267C6.84104 18.8313 7.00298 19.7746 7.46108 20.6722C7.59075 20.927 7.68305 21.0119 8.00412 21.0085C8.00412 20.6563 8.01488 20.303 8.00072 19.9507C7.9894 19.6857 8.0715 19.4898 8.30027 19.3443C8.48486 19.2271 8.64002 19.0612 8.83084 18.957C9.34047 18.6835 9.57433 18.2899 9.45882 17.7061C9.42031 17.5091 9.51544 17.3573 9.6587 17.2197C10.0483 16.8392 10.4311 16.4507 10.8144 16.064C10.8631 16.0147 10.9277 15.9592 10.939 15.8975C11.0245 15.5091 11.0975 15.1144 11.1797 14.692ZM4.35406 11.4439C4.42994 11.064 4.39256 10.756 4.07093 10.5345C3.97025 10.4675 3.88431 10.3806 3.81838 10.2792C3.74477 10.1586 3.67116 10.0181 3.66097 9.88279C3.63718 9.58041 3.65021 9.27464 3.65417 8.97056C3.65757 8.68743 3.76742 8.55436 4.05055 8.5119C4.48316 8.44678 4.91748 8.38959 5.35293 8.33069C5.95938 8.24746 6.5347 8.13364 7.09132 7.80748C7.80423 7.38958 8.39653 6.90884 8.72269 6.1427C8.9843 5.52662 9.42088 5.1376 10.0908 5.02831C10.1192 5.02661 10.1468 5.01806 10.1712 5.0034C10.2163 4.97496 10.254 4.93613 10.281 4.89015C10.3337 4.76048 10.3727 4.62514 10.4231 4.47226C10.2284 4.43771 10.05 4.39864 9.86992 4.37656C9.1151 4.28256 8.37501 4.15685 7.77478 3.62174C7.72382 3.57644 7.58566 3.58098 7.51205 3.61438C5.18626 4.67516 3.48467 6.36542 2.40728 8.68517C2.3689 8.77192 2.36092 8.86908 2.38463 8.96093C2.52676 9.41903 2.68305 9.8726 2.83763 10.3262C2.85552 10.3933 2.89273 10.4538 2.94466 10.5C3.40389 10.8148 3.86821 11.1217 4.35406 11.4439ZM13.2402 5.39751C13.7623 5.61552 13.7623 5.61552 14.2725 5.48924C14.5392 5.42299 14.8042 5.34881 15.0732 5.29559C15.1885 5.26678 15.3094 5.26874 15.4237 5.30125C16.2335 5.60419 17.0766 5.76841 17.922 5.92412C17.9826 5.93545 18.0607 5.95583 18.1055 5.92922C18.2901 5.8205 18.4651 5.69479 18.6536 5.56852C17.9869 4.92169 17.2317 4.3728 16.4107 3.93828C16.3376 3.90971 16.2561 3.91134 16.1842 3.94281C15.8444 4.10079 15.5171 4.28256 15.1774 4.43488C15.0432 4.49408 14.8992 4.52805 14.7527 4.53511C14.4424 4.54983 14.1298 4.53511 13.8201 4.54417C13.7818 4.54656 13.7445 4.55709 13.7106 4.57505C13.6767 4.59302 13.6471 4.61801 13.6236 4.64836C13.4854 4.89128 13.3699 5.14043 13.2402 5.39751Z" fill="white"/>
</g>
</svg>
