<svg width="38" height="38" viewBox="0 0 38 38" fill="none" xmlns="http://www.w3.org/2000/svg">
<circle cx="19" cy="19" r="18.5" fill="#F9AA00" fill-opacity="0.2" stroke="#F9AA00"/>
<path d="M12.8417 21.8893H10C10.1139 19.3302 11.7969 16.9198 13.9591 16.2545C15.2617 15.8538 16.5555 15.9067 17.7793 16.5531C18.6351 17.0067 19.4547 17.5296 20.3094 17.9845C21.9273 18.8426 23.5139 18.1445 24.0332 16.3855C24.0622 16.3168 24.1072 16.2561 24.1645 16.2087C24.2218 16.1613 24.2897 16.1286 24.3623 16.1134C25.2194 16.0894 26.0778 16.1008 27 16.1008C26.776 17.4528 26.3969 18.6964 25.6236 19.7901C24.9163 20.8244 23.8553 21.5599 22.6434 21.856C21.4315 22.1521 20.1537 21.9881 19.0543 21.3953C18.3498 21.0262 17.7104 20.5272 16.9935 20.187C16.4535 19.9161 15.8685 19.7478 15.2679 19.6905C14.1768 19.6162 13.2383 20.3873 12.9443 21.447C12.9105 21.5818 12.8842 21.7192 12.8417 21.8893Z" fill="#F9AA00"/>
</svg>
