<svg width="24" height="25" viewBox="0 0 24 25" fill="none" xmlns="http://www.w3.org/2000/svg">
<g opacity="0.8">
<path d="M21.5445 11.5192C21.5778 12.4636 21.5778 13.5235 21.3006 14.5629C20.7223 16.7333 19.3724 18.2699 17.3997 19.2849C16.122 19.9432 14.7471 20.2781 13.321 20.417C12.8511 20.4631 12.38 20.482 11.9078 20.4981C11.7554 20.5074 11.6029 20.4822 11.4615 20.4245C11.3201 20.3668 11.1936 20.2781 11.0912 20.1648C10.594 19.6421 10.2184 19.0365 9.89289 18.3988C9.2196 17.0794 8.78184 15.6928 8.78518 14.199C8.78851 12.3841 9.5168 10.8659 10.7584 9.57704C11.7084 8.58932 12.8444 7.86325 14.0582 7.25217C15.7948 6.37814 17.5342 5.50893 19.2763 4.64453C19.8501 4.35788 20.314 4.49787 20.6223 5.06229C20.9456 5.65503 21.0801 6.30778 21.1934 6.9633C21.4462 8.43044 21.515 9.91369 21.5445 11.5192ZM11.0589 16.6656C11.0878 16.6378 11.0951 16.6344 11.0962 16.63C11.565 14.4301 12.6794 12.6298 14.4393 11.2292C15.147 10.6696 15.9351 10.2201 16.777 9.89592C17.1175 9.76259 17.4347 9.81036 17.7086 10.0504C17.9702 10.2792 18.0597 10.5775 17.9864 10.9164C17.9002 11.3053 17.6053 11.4808 17.2642 11.6225C14.531 12.7524 12.6444 15.5578 12.6211 18.5021C12.6211 18.6532 12.66 18.6838 12.8072 18.6738C13.8499 18.5999 14.8682 18.4088 15.8454 18.0299C18.2591 17.0944 19.7768 15.2051 19.7835 12.4391C19.7868 11.1258 19.7701 9.81648 19.609 8.51155C19.5313 7.88102 19.4424 7.25217 19.3074 6.61887C19.233 6.65442 19.1707 6.68275 19.1096 6.71331C17.853 7.34161 16.5986 7.97269 15.3404 8.59654C14.3893 9.06818 13.4555 9.5676 12.6383 10.2559C11.2767 11.4014 10.444 12.7963 10.5695 14.6446C10.6116 15.3419 10.7773 16.0262 11.0589 16.6656Z" fill="white"/>
<path d="M4.24656 6.61395C4.03675 7.69158 3.89426 8.78122 3.81992 9.87656C3.75548 10.7987 3.77548 11.7215 3.77714 12.6447C3.77926 13.8074 4.13897 14.9413 4.80749 15.8925C5.47601 16.8438 6.42097 17.5664 7.51417 17.9622C7.82359 18.0733 8.07691 18.2367 8.18524 18.56C8.30135 18.9072 8.22857 19.2266 7.96859 19.4794C7.7086 19.7321 7.38473 19.8027 7.02808 19.6788C6.08603 19.3608 5.2197 18.8519 4.48322 18.1839C2.84553 16.684 2.0139 14.8168 2.00113 12.5981C1.99224 11.1054 2.0339 9.61324 2.19945 8.12776C2.30333 7.19781 2.4311 6.27008 2.77886 5.39124C2.82667 5.26878 2.88369 5.15012 2.94941 5.03626C3.25828 4.50462 3.72159 4.36963 4.27434 4.64406C5.56834 5.28958 6.86198 5.93621 8.15524 6.58396C8.613 6.81283 9.07408 7.03615 9.52684 7.27559C9.69856 7.36327 9.83647 7.50529 9.91906 7.67953C10.0017 7.85376 10.0243 8.05042 9.98348 8.23887C9.94416 8.41983 9.84998 8.58426 9.71378 8.70972C9.57758 8.83519 9.40598 8.91558 9.22241 8.93994C9.00686 8.97216 8.8141 8.90328 8.62411 8.80773C7.22714 8.10628 5.82907 7.40576 4.42989 6.70617L4.24656 6.61395Z" fill="white"/>
</g>
</svg>
