<svg width="24" height="24" viewBox="0 0 24 24" fill="none" xmlns="http://www.w3.org/2000/svg">
<g opacity="0.8">
<path d="M7.18881 22C6.94974 21.75 6.92838 21.4156 7.14349 20.9823C7.44142 20.3775 7.92477 20.0369 8.60188 20.0088C8.96647 19.9942 9.33107 20.0088 9.69567 19.9963C9.78955 19.9912 9.87894 19.9545 9.94932 19.8921C10.2691 19.5864 10.5811 19.2723 10.8869 18.9546C10.9419 18.8946 10.9744 18.8172 10.9785 18.7358C10.9827 14.7582 10.9837 10.7803 10.9817 6.80206C10.9817 6.77029 10.9775 6.73799 10.9744 6.69216C10.9247 6.68352 10.8746 6.67779 10.8244 6.67497C9.8738 6.67497 8.92324 6.67497 7.97269 6.68643C7.5258 6.69164 7.10182 6.81456 6.67889 7.00571C6.70806 7.07811 6.73098 7.14843 6.76431 7.21405C7.77789 9.42872 8.77845 11.6496 9.81598 13.8534C10.0587 14.368 9.99776 14.8263 9.78057 15.2888C9.37899 16.1467 8.68678 16.6347 7.74039 16.6566C6.50493 16.6852 5.26634 16.6884 4.0314 16.6352C2.96574 16.5889 2.02612 15.555 2.00008 14.4883C1.99819 14.3337 2.03038 14.1806 2.09435 14.0398C3.12772 11.7699 4.16526 9.50198 5.20696 7.23593C5.23405 7.17707 5.25905 7.11822 5.29707 7.0354L4.51006 6.62914L4.80695 6.03172L5.56427 6.40569C5.94397 5.8614 6.08512 5.85619 6.39763 6.37652C6.59764 6.30881 6.79504 6.21558 7.00234 6.17808C7.43517 6.09995 7.87216 6.01297 8.30968 5.99786C9.12273 5.96922 9.93734 5.98953 10.7509 5.98953H10.9702V5.33534H10.329V4.66448H10.89C10.8145 4.36134 10.7447 4.08217 10.6754 3.80299C10.4816 3.02171 10.8421 2.30919 11.5504 2.07272C11.7777 1.99559 12.0212 1.97948 12.2567 2.026C12.4922 2.07252 12.7113 2.18004 12.8921 2.33781C13.073 2.49558 13.2093 2.69807 13.2873 2.92503C13.3654 3.15199 13.3825 3.39547 13.3369 3.63111C13.2718 3.9681 13.1807 4.29989 13.0953 4.6525H13.6468V5.32961H13.0093V5.99161H13.2104C13.9719 5.99161 14.7339 5.99474 15.4954 5.99161C16.1844 5.98849 16.8569 6.07339 17.4933 6.35621C17.5227 6.36634 17.5528 6.37401 17.5834 6.37913C17.821 5.839 18.2085 5.89682 18.4069 6.4135L19.1757 6.03536L19.4741 6.6333L18.6929 7.02967C18.7158 7.09113 18.7304 7.14009 18.7512 7.18593C19.8238 9.52351 20.8961 11.8616 21.968 14.2002C21.9727 14.2107 21.9857 14.2174 21.9951 14.2263V14.656C21.9787 14.6969 21.9651 14.7388 21.9544 14.7815C21.7701 15.7763 20.9049 16.6045 19.8939 16.643C18.6851 16.6904 17.472 16.7009 16.2631 16.6576C15.1172 16.617 14.2979 15.8951 14.0458 14.83C13.9689 14.534 13.9989 14.2204 14.1307 13.9445C15.1657 11.7106 16.1865 9.47038 17.2126 7.2328C17.2459 7.15936 17.2756 7.08436 17.3064 7.01196C16.9079 6.81768 16.4141 6.68799 16.0115 6.68487C15.061 6.6781 14.1104 6.67706 13.1599 6.67497C13.1096 6.67779 13.0595 6.68352 13.0098 6.69216C13.0067 6.73799 13.0026 6.77029 13.0026 6.80206C13.0026 10.78 13.0036 14.7579 13.0057 18.7358C13.0098 18.8172 13.0423 18.8946 13.0974 18.9546C13.4047 19.2733 13.7166 19.5874 14.0349 19.8921C14.1053 19.9545 14.1947 19.9912 14.2885 19.9963C14.6531 20.0093 15.0177 19.9963 15.3823 20.0088C16.0626 20.0369 16.5449 20.3775 16.8407 20.9823C17.0543 21.4156 17.0345 21.75 16.7954 22H7.18881ZM21.1294 13.9836C20.1099 11.7585 19.0957 9.54504 18.0866 7.34322C17.9199 7.28697 17.8783 7.39531 17.8262 7.50469C16.9372 9.44747 16.0475 11.3897 15.1568 13.3315C15.0604 13.5429 14.9646 13.7544 14.8604 13.9836H21.1294ZM9.12221 13.9836C9.09096 13.9096 9.07012 13.8502 9.04148 13.7929C8.08207 11.697 7.12127 9.60146 6.15908 7.50625C6.12731 7.4375 6.04762 7.39062 5.99033 7.33333C5.93459 7.39218 5.85907 7.44114 5.82678 7.51094C4.86251 9.60476 3.90101 11.7 2.9423 13.7966C2.91626 13.8539 2.89542 13.9138 2.8673 13.9836H9.12221ZM2.71833 14.6763C2.84073 15.3821 3.49961 15.9717 4.19859 15.981C5.37624 15.9972 6.55441 15.9925 7.73205 15.9847C8.22113 15.981 8.62167 15.7612 8.93418 15.3914C9.10554 15.1893 9.2368 14.9612 9.26701 14.6763H2.71833ZM21.2607 14.6794H14.7281C14.7272 14.7143 14.7293 14.7491 14.7344 14.7836C14.8828 15.4039 15.5297 15.9696 16.1688 15.979C17.3841 15.9967 18.6008 15.9967 19.8189 15.979C20.5044 15.9691 21.1747 15.3461 21.2627 14.6799L21.2607 14.6794ZM12.3072 18.6535V6.68851H11.6822V18.6535H12.3072ZM16.2449 21.3333C16.1074 20.9166 15.7459 20.6734 15.2735 20.6729C13.0859 20.6729 10.8983 20.6729 8.71074 20.6729C8.67167 20.6729 8.63261 20.6729 8.59406 20.6729C8.18884 20.7 7.80966 20.9968 7.75497 21.3312L16.2449 21.3333ZM11.9832 4.6598C12.0481 4.65562 12.1132 4.65562 12.178 4.6598C12.3343 4.67959 12.4223 4.63375 12.4551 4.45718C12.5135 4.14467 12.6057 3.84101 12.676 3.53163C12.7432 3.23422 12.6338 2.95869 12.3885 2.80243C12.2724 2.72293 12.1349 2.6804 11.9942 2.6804C11.8535 2.6804 11.716 2.72293 11.5999 2.80243C11.3541 2.95557 11.2452 3.23318 11.3113 3.53163C11.3671 3.78476 11.4311 4.03581 11.4936 4.28738C11.5864 4.66031 11.5874 4.6598 11.9832 4.6598ZM13.151 19.9921C12.6192 19.3395 12.6192 19.3395 11.8322 19.3395C11.7478 19.3395 11.6634 19.3395 11.5785 19.3395C11.54 19.3395 11.4869 19.3296 11.465 19.3504C11.2535 19.5525 11.0483 19.7603 10.8145 19.9916L13.151 19.9921ZM12.302 5.9812V5.34836H11.6812V5.9812H12.302Z" fill="white"/>
</g>
</svg>
