<svg width="24" height="25" viewBox="0 0 24 25" fill="none" xmlns="http://www.w3.org/2000/svg">
<g opacity="0.8">
<path d="M3.61979 17.78C3.71792 18.0267 3.91001 18.2242 4.15381 18.3292C4.3976 18.4343 4.67314 18.4381 4.91979 18.34C5.16644 18.2419 5.364 18.0498 5.46903 17.806C5.57405 17.5622 5.57792 17.2867 5.47979 17.04L4.35979 14.22L10.9998 12.75V17.5C10.9998 17.7652 11.1051 18.0196 11.2927 18.2071C11.4802 18.3946 11.7346 18.5 11.9998 18.5C12.265 18.5 12.5194 18.3946 12.7069 18.2071C12.8944 18.0196 12.9998 17.7652 12.9998 17.5V12.75L19.6398 14.22L18.5198 17.04C18.4711 17.1621 18.4469 17.2926 18.4487 17.4241C18.4505 17.5556 18.4782 17.6854 18.5302 17.8061C18.5822 17.9269 18.6575 18.0362 18.7518 18.1278C18.8461 18.2194 18.9576 18.2915 19.0798 18.34C19.1976 18.3866 19.3231 18.4103 19.4498 18.41C19.6501 18.4102 19.8458 18.3502 20.0116 18.2379C20.1774 18.1256 20.3057 17.9661 20.3798 17.78L21.9298 13.87C21.983 13.7348 22.0061 13.5896 21.9974 13.4445C21.9888 13.2994 21.9487 13.158 21.8798 13.03C21.813 12.9025 21.7194 12.7909 21.6055 12.7029C21.4916 12.6149 21.36 12.5525 21.2198 12.52L17.9998 11.81V7.5C17.9998 7.23478 17.8944 6.98043 17.7069 6.79289C17.5194 6.60536 17.265 6.5 16.9998 6.5H14.9998V3.5C14.9998 3.23478 14.8944 2.98043 14.7069 2.79289C14.5194 2.60536 14.265 2.5 13.9998 2.5H9.99979C9.73457 2.5 9.48022 2.60536 9.29268 2.79289C9.10514 2.98043 8.99979 3.23478 8.99979 3.5V6.5H6.99979C6.73457 6.5 6.48022 6.60536 6.29268 6.79289C6.10514 6.98043 5.99979 7.23478 5.99979 7.5V11.81L2.77979 12.5C2.63955 12.5325 2.50798 12.5949 2.39408 12.6829C2.28017 12.7709 2.18661 12.8825 2.11979 13.01C2.05092 13.138 2.01077 13.2794 2.00213 13.4245C1.9935 13.5696 2.01658 13.7148 2.06979 13.85L3.61979 17.78ZM10.9998 4.5H12.9998V6.5H10.9998V4.5ZM7.99979 8.5H15.9998V11.36L12.2198 10.5H12.1198H11.9998H11.8798H11.7798L7.99979 11.36V8.5ZM20.7098 19.78C20.3589 19.8875 20.0229 20.0387 19.7098 20.23C19.3912 20.4163 19.0288 20.5145 18.6598 20.5145C18.2907 20.5145 17.9284 20.4163 17.6098 20.23C16.917 19.8392 16.1352 19.6339 15.3398 19.6339C14.5444 19.6339 13.7625 19.8392 13.0698 20.23C12.7469 20.4141 12.3815 20.511 12.0098 20.511C11.638 20.511 11.2727 20.4141 10.9498 20.23C10.2564 19.8411 9.47477 19.6368 8.67979 19.6368C7.8848 19.6368 7.10314 19.8411 6.40979 20.23C6.09122 20.4163 5.72883 20.5145 5.35979 20.5145C4.99075 20.5145 4.62835 20.4163 4.30979 20.23C3.99662 20.0387 3.66066 19.8875 3.30979 19.78C3.17673 19.7327 3.03516 19.7141 2.8944 19.7255C2.75364 19.7368 2.61688 19.7778 2.49312 19.8459C2.36937 19.9139 2.26142 20.0073 2.17639 20.1201C2.09135 20.2328 2.03117 20.3623 1.99979 20.5C1.92513 20.7533 1.95368 21.0258 2.0792 21.2581C2.20472 21.4904 2.41702 21.6636 2.66979 21.74C2.87115 21.7946 3.06326 21.8788 3.23979 21.99C3.84649 22.346 4.53636 22.5357 5.23979 22.54C5.97039 22.5401 6.68801 22.3469 7.31979 21.98C7.71176 21.7638 8.15213 21.6504 8.59979 21.6504C9.04745 21.6504 9.48781 21.7638 9.87979 21.98C10.5071 22.3387 11.2172 22.5274 11.9398 22.5274C12.6624 22.5274 13.3725 22.3387 13.9998 21.98C14.3918 21.7638 14.8321 21.6504 15.2798 21.6504C15.7274 21.6504 16.1678 21.7638 16.5598 21.98C17.1796 22.3499 17.888 22.5453 18.6098 22.5453C19.3316 22.5453 20.04 22.3499 20.6598 21.98C20.8363 21.8688 21.0284 21.7846 21.2298 21.73C21.3629 21.7031 21.4891 21.6493 21.6007 21.5721C21.7123 21.4948 21.8071 21.3956 21.8791 21.2805C21.9512 21.1654 21.999 21.0368 22.0198 20.9027C22.0405 20.7685 22.0337 20.6315 21.9998 20.5C21.968 20.3647 21.9084 20.2374 21.8247 20.1265C21.7409 20.0155 21.635 19.9232 21.5136 19.8554C21.3922 19.7877 21.2581 19.746 21.1197 19.733C20.9812 19.72 20.8417 19.736 20.7098 19.78Z" fill="white"/>
</g>
</svg>
