<svg width="25" height="25" viewBox="0 0 25 25" fill="none" xmlns="http://www.w3.org/2000/svg">
<g opacity="0.8">
<path fill-rule="evenodd" clip-rule="evenodd" d="M20.625 9C20.625 11.2782 18.7782 13.125 16.5 13.125C14.2218 13.125 12.375 11.2782 12.375 9C12.375 6.72183 14.2218 4.875 16.5 4.875C18.7782 4.875 20.625 6.72183 20.625 9Z" stroke="white" stroke-width="2.12121"/>
<g clip-path="url(#clip0_1288_10866)">
<line x1="22.9394" y1="9.68561" x2="22.8106" y2="9.68561" stroke="#F25022" stroke-width="2.12121" stroke-linecap="round" stroke-linejoin="round"/>
</g>
<g clip-path="url(#clip1_1288_10866)">
<line x1="10.1894" y1="9.68561" x2="10.0606" y2="9.68561" stroke="#F25022" stroke-width="2.12121" stroke-linecap="round" stroke-linejoin="round"/>
</g>
<g clip-path="url(#clip2_1288_10866)">
<line x1="22.9394" y1="9.68561" x2="22.8106" y2="9.68561" stroke="white" stroke-width="2.12121" stroke-linecap="round" stroke-linejoin="round"/>
</g>
<g clip-path="url(#clip3_1288_10866)">
<line x1="10.1894" y1="9.68561" x2="10.0606" y2="9.68561" stroke="white" stroke-width="2.12121" stroke-linecap="round" stroke-linejoin="round"/>
</g>
<g clip-path="url(#clip4_1288_10866)">
<line x1="21.7338" y1="12.8134" x2="21.6223" y2="12.749" stroke="white" stroke-width="2.12121" stroke-linecap="round" stroke-linejoin="round"/>
</g>
<g clip-path="url(#clip5_1288_10866)">
<line x1="19.1254" y1="14.9195" x2="19.061" y2="14.808" stroke="white" stroke-width="2.12121" stroke-linecap="round" stroke-linejoin="round"/>
</g>
<g clip-path="url(#clip6_1288_10866)">
<line x1="12.7504" y1="3.87766" x2="12.686" y2="3.76613" stroke="white" stroke-width="2.12121" stroke-linecap="round" stroke-linejoin="round"/>
</g>
<g clip-path="url(#clip7_1288_10866)">
<line x1="15.8144" y1="15.4394" x2="15.8144" y2="15.3106" stroke="white" stroke-width="2.12121" stroke-linecap="round" stroke-linejoin="round"/>
</g>
<g clip-path="url(#clip8_1288_10866)">
<line x1="15.8144" y1="2.68939" x2="15.8144" y2="2.56061" stroke="white" stroke-width="2.12121" stroke-linecap="round" stroke-linejoin="round"/>
</g>
<g clip-path="url(#clip9_1288_10866)">
<line x1="12.686" y1="14.2339" x2="12.7504" y2="14.1224" stroke="white" stroke-width="2.12121" stroke-linecap="round" stroke-linejoin="round"/>
</g>
<g clip-path="url(#clip10_1288_10866)">
<line x1="19.061" y1="3.19205" x2="19.1254" y2="3.08052" stroke="white" stroke-width="2.12121" stroke-linecap="round" stroke-linejoin="round"/>
</g>
<g clip-path="url(#clip11_1288_10866)">
<line x1="10.5806" y1="11.626" x2="10.6921" y2="11.5616" stroke="white" stroke-width="2.12121" stroke-linecap="round" stroke-linejoin="round"/>
</g>
<g clip-path="url(#clip12_1288_10866)">
<line x1="21.6226" y1="5.25101" x2="21.7341" y2="5.18662" stroke="white" stroke-width="2.12121" stroke-linecap="round" stroke-linejoin="round"/>
</g>
<path fill-rule="evenodd" clip-rule="evenodd" d="M16.9064 11.032C16.9064 11.032 16.9985 11.5 17.03 11.5045C18.7268 11.7465 20 12.7362 20 14.5C20 16.433 18.433 18 16.5 18H7.5C5.567 18 4 16.433 4 14.5C4 12.7362 5.30461 11.2772 7.00148 11.0352C7.03293 11.0307 7.06373 11.0298 7.09363 11.032C7.54444 8.73385 9.56974 7 12 7C14.4303 7 16.4556 8.73385 16.9064 11.032Z" fill="#252B42"/>
<path d="M7.76471 18C5.68552 18 4 16.3584 4 14.3333C4 12.5646 5.28591 11.0883 6.99689 10.743C7.58508 8.58792 9.60214 7 12 7C14.7107 7 16.9348 9.02937 17.158 11.6133C18.7634 11.8279 20 13.1692 20 14.7917C20 16.5636 18.5252 18 16.7059 18H7.76471Z" stroke="white" stroke-width="2.12121" stroke-linecap="round" stroke-linejoin="round"/>
</g>
<defs>
<clipPath id="clip0_1288_10866">
<rect x="21.375" y="8.25" width="3" height="1.5" rx="0.75" fill="white"/>
</clipPath>
<clipPath id="clip1_1288_10866">
<rect x="8.625" y="8.25" width="3" height="1.5" rx="0.75" fill="white"/>
</clipPath>
<clipPath id="clip2_1288_10866">
<rect x="21.375" y="8.25" width="3" height="1.5" rx="0.75" fill="white"/>
</clipPath>
<clipPath id="clip3_1288_10866">
<rect x="8.625" y="8.25" width="3" height="1.5" rx="0.75" fill="white"/>
</clipPath>
<clipPath id="clip4_1288_10866">
<rect x="21.0967" y="10.788" width="3" height="1.5" rx="0.75" transform="rotate(30 21.0967 10.788)" fill="white"/>
</clipPath>
<clipPath id="clip5_1288_10866">
<rect x="19.5869" y="12.8469" width="3" height="1.5" rx="0.75" transform="rotate(60 19.5869 12.8469)" fill="white"/>
</clipPath>
<clipPath id="clip6_1288_10866">
<rect x="13.2119" y="1.80505" width="3" height="1.5" rx="0.75" transform="rotate(60 13.2119 1.80505)" fill="white"/>
</clipPath>
<clipPath id="clip7_1288_10866">
<rect x="17.25" y="13.875" width="3" height="1.5" rx="0.75" transform="rotate(90 17.25 13.875)" fill="white"/>
</clipPath>
<clipPath id="clip8_1288_10866">
<rect x="17.25" y="1.125" width="3" height="1.5" rx="0.75" transform="rotate(90 17.25 1.125)" fill="white"/>
</clipPath>
<clipPath id="clip9_1288_10866">
<rect x="14.7119" y="13.5969" width="3" height="1.5" rx="0.75" transform="rotate(120 14.7119 13.5969)" fill="white"/>
</clipPath>
<clipPath id="clip10_1288_10866">
<rect x="21.0869" y="2.55505" width="3" height="1.5" rx="0.75" transform="rotate(120 21.0869 2.55505)" fill="white"/>
</clipPath>
<clipPath id="clip11_1288_10866">
<rect x="12.6533" y="12.087" width="3" height="1.5" rx="0.75" transform="rotate(150 12.6533 12.087)" fill="white"/>
</clipPath>
<clipPath id="clip12_1288_10866">
<rect x="23.6953" y="5.71204" width="3" height="1.5" rx="0.75" transform="rotate(150 23.6953 5.71204)" fill="white"/>
</clipPath>
</defs>
</svg>
